<svg width="70" height="70" viewBox="0 0 70 70" fill="none" xmlns="http://www.w3.org/2000/svg">
<g clip-path="url(#clip0_170_522)">
<path d="M0.42334 25.4502C0.42334 16.69 0.42334 12.3099 2.12819 8.96391C3.62783 6.02072 6.02072 3.62783 8.96391 2.12819C12.3099 0.42334 16.69 0.42334 25.4502 0.42334H44.5497C53.3099 0.42334 57.69 0.42334 61.036 2.12819C63.9792 3.62783 66.3721 6.02072 67.8717 8.96391C69.5766 12.3099 69.5766 16.69 69.5766 25.4502V44.5497C69.5766 53.3099 69.5766 57.69 67.8717 61.036C66.3721 63.9792 63.9792 66.3721 61.036 67.8717C57.69 69.5766 53.3099 69.5766 44.5497 69.5766H25.4502C16.69 69.5766 12.3099 69.5766 8.96391 67.8717C6.02072 66.3721 3.62783 63.9792 2.12819 61.036C0.42334 57.69 0.42334 53.3099 0.42334 44.5497V25.4502Z" fill="#330000"/>
<path d="M33.9341 43.8819H23.218L21.0376 50.8285C20.9771 51.0866 20.7394 51.2694 20.4809 51.2568H15.0533C14.7438 51.2568 14.6355 51.0823 14.7285 50.7334L24.0065 23.3274C24.0994 23.042 24.1922 22.7169 24.285 22.352C24.4063 21.7172 24.4685 21.072 24.4705 20.4251C24.4439 20.234 24.6119 20.0652 24.7953 20.092H32.1712C32.3873 20.092 32.511 20.1713 32.5424 20.3299L43.0731 50.7809C43.1658 51.0984 43.073 51.257 42.7946 51.2568H36.7638C36.5523 51.2808 36.3503 51.1358 36.3 50.9237L33.9341 43.8819ZM24.888 37.8869H32.2176C31.0134 33.7718 29.6544 29.7108 28.5529 25.5637C27.3645 29.7178 26.0678 33.8552 24.888 37.8869Z" fill="#FF9A00"/>
<path d="M49.3351 25.1353C48.862 25.1548 48.3901 25.0716 47.9505 24.8913C47.5108 24.7109 47.1132 24.4374 46.7837 24.0886C46.4551 23.7247 46.1998 23.2977 46.0326 22.8323C45.8654 22.3669 45.7895 21.8721 45.8094 21.3765C45.7925 20.8858 45.8768 20.397 46.0566 19.942C46.2365 19.487 46.5079 19.076 46.8532 18.7358C47.1951 18.3992 47.5987 18.1355 48.0406 17.9599C48.4826 17.7843 48.9541 17.7004 49.4278 17.7129C50.5413 17.7129 51.415 18.0539 52.0489 18.7358C52.369 19.0902 52.6177 19.5059 52.7808 19.959C52.944 20.4122 53.0185 20.8939 52.9999 21.3765C53.0193 21.8741 52.941 22.3705 52.7697 22.8364C52.5983 23.3023 52.3374 23.7281 52.0025 24.0886C51.6525 24.4425 51.2347 24.7182 50.7757 24.8984C50.3166 25.0785 49.8261 25.1592 49.3351 25.1353ZM46.1341 50.7808V28.0376C46.1341 27.7522 46.2573 27.6094 46.5052 27.6094H52.2113C52.4585 27.6094 52.5822 27.7522 52.5825 28.0376V50.7808C52.5825 51.0982 52.4587 51.2568 52.2113 51.2566H46.5517C46.2734 51.2566 46.1342 51.098 46.1341 50.7808Z" fill="#FF9A00"/>
</g>
<defs>
<clipPath id="clip0_170_522">
<rect width="70" height="70" fill="white"/>
</clipPath>
</defs>
</svg>
