<svg width="80" height="80" viewBox="0 0 80 80" fill="none" xmlns="http://www.w3.org/2000/svg">
<path d="M58.0001 73.3334C44.391 73.3158 31.3445 67.9018 21.7214 58.2788C12.0984 48.6557 6.68439 35.6091 6.66675 22.0001C6.66675 17.9334 8.28222 14.0333 11.1578 11.1578C14.0333 8.28223 17.9334 6.66676 22.0001 6.66676C22.8612 6.66147 23.7207 6.73961 24.5667 6.90009C25.3836 7.02528 26.1871 7.22614 26.9667 7.50009C27.5142 7.69219 28.0021 8.02387 28.3821 8.46233C28.7621 8.90079 29.0211 9.43085 29.1334 10.0001L33.7001 30.0001C33.8232 30.543 33.8083 31.108 33.657 31.6437C33.5056 32.1794 33.2224 32.6686 32.8334 33.0668C32.4001 33.5334 32.3667 33.5668 28.2667 35.7001C31.5476 42.9047 37.309 48.6898 44.5001 52.0001C46.6667 47.8668 46.7001 47.8334 47.1667 47.4001C47.5649 47.0111 48.0541 46.7279 48.5898 46.5765C49.1255 46.4252 49.6905 46.4103 50.2334 46.5334L70.2334 51.1001C70.7844 51.2279 71.2938 51.4939 71.7137 51.8729C72.1336 52.252 72.4501 52.7316 72.6334 53.2668C72.9154 54.0577 73.1273 54.872 73.2667 55.7001C73.3978 56.5382 73.4647 57.3851 73.4668 58.2334C73.4053 62.2827 71.7444 66.1432 68.8467 68.9723C65.9489 71.8013 62.0497 73.3691 58.0001 73.3334ZM22.0001 13.3334C19.7042 13.3422 17.5049 14.2581 15.8815 15.8815C14.2581 17.5049 13.3422 19.7042 13.3334 22.0001C13.3422 33.8437 18.051 45.1997 26.4257 53.5744C34.8004 61.9492 46.1565 66.6579 58.0001 66.6668C60.2959 66.658 62.4952 65.7421 64.1186 64.1186C65.7421 62.4952 66.658 60.2959 66.6667 58.0001V56.9001L51.2001 53.3334L50.2334 55.1668C48.7334 58.0667 47.6334 60.1668 44.8334 59.0334C39.3097 57.0563 34.2957 53.8735 30.1559 49.7164C26.016 45.5592 22.8542 40.532 20.9001 35.0001C19.7001 32.4001 21.9667 31.2001 24.8334 29.7001L26.6667 28.8001L23.1001 13.3334H22.0001Z" fill="#8387C4"/>
</svg>
