<svg width="80" height="80" viewBox="0 0 80 80" fill="none" xmlns="http://www.w3.org/2000/svg">
<path d="M58 73.3334C44.3909 73.3158 31.3443 67.9018 21.7213 58.2788C12.0982 48.6557 6.68427 35.6091 6.66663 22.0001C6.66663 17.9334 8.2821 14.0333 11.1577 11.1578C14.0332 8.28223 17.9333 6.66676 22 6.66676C22.861 6.66147 23.7206 6.73961 24.5666 6.90009C25.3835 7.02528 26.1869 7.22614 26.9666 7.50009C27.5141 7.69219 28.002 8.02387 28.382 8.46233C28.762 8.90079 29.021 9.43085 29.1333 10.0001L33.7 30.0001C33.823 30.543 33.8082 31.108 33.6568 31.6437C33.5055 32.1794 33.2223 32.6686 32.8333 33.0668C32.4 33.5334 32.3666 33.5668 28.2666 35.7001C31.5475 42.9047 37.3089 48.6898 44.5 52.0001C46.6666 47.8668 46.7 47.8334 47.1666 47.4001C47.5648 47.0111 48.054 46.7279 48.5897 46.5765C49.1254 46.4252 49.6904 46.4103 50.2333 46.5334L70.2333 51.1001C70.7843 51.2279 71.2937 51.4939 71.7136 51.8729C72.1334 52.252 72.45 52.7316 72.6333 53.2668C72.9153 54.0577 73.1272 54.872 73.2666 55.7001C73.3977 56.5382 73.4645 57.3851 73.4666 58.2334C73.4052 62.2827 71.7443 66.1432 68.8465 68.9723C65.9488 71.8013 62.0495 73.3691 58 73.3334ZM22 13.3334C19.7041 13.3422 17.5048 14.2581 15.8814 15.8815C14.258 17.5049 13.3421 19.7042 13.3333 22.0001C13.3421 33.8437 18.0509 45.1997 26.4256 53.5744C34.8003 61.9492 46.1563 66.6579 58 66.6668C60.2958 66.658 62.4951 65.7421 64.1185 64.1186C65.7419 62.4952 66.6578 60.2959 66.6666 58.0001V56.9001L51.2 53.3334L50.2333 55.1668C48.7333 58.0667 47.6333 60.1668 44.8333 59.0334C39.3096 57.0563 34.2956 53.8735 30.1557 49.7164C26.0159 45.5592 22.854 40.532 20.9 35.0001C19.7 32.4001 21.9666 31.2001 24.8333 29.7001L26.6666 28.8001L23.1 13.3334H22Z" fill="#3A3E6D"/>
</svg>
