<svg width="70" height="70" viewBox="0 0 70 70" fill="none" xmlns="http://www.w3.org/2000/svg">
<g clip-path="url(#clip0_170_525)">
<path d="M0 25.3333C0 16.4658 0 12.0321 1.72573 8.64515C3.24373 5.66592 5.66592 3.24373 8.64515 1.72573C12.0321 0 16.4658 0 25.3333 0H44.6667C53.5342 0 57.9679 0 61.3549 1.72573C64.3341 3.24373 66.7563 5.66592 68.2743 8.64515C70 12.0321 70 16.4658 70 25.3333V44.6667C70 53.5342 70 57.9679 68.2743 61.3549C66.7563 64.3341 64.3341 66.7563 61.3549 68.2743C57.9679 70 53.5342 70 44.6667 70H25.3333C16.4658 70 12.0321 70 8.64515 68.2743C5.66592 66.7563 3.24373 64.3341 1.72573 61.3549C0 57.9679 0 53.5342 0 44.6667V25.3333Z" fill="#001E36"/>
<path d="M15 51.2906V20.5085C15 20.2991 15.0875 20.1795 15.2917 20.1795C18.3057 20.1795 21.3184 20 24.3333 20C29.2254 20 34.5225 21.6727 36.3792 26.7906C36.8167 28.047 37.05 29.3333 37.05 30.6795C37.05 33.2521 36.4667 35.3761 35.3 37.0513C32.041 41.7308 26.3925 41.6581 21.3292 41.6581V51.2607C21.3688 51.545 21.1265 51.6795 20.8917 51.6795H15.35C15.1167 51.6795 15 51.5598 15 51.2906ZM21.3583 25.953V36.0043C23.366 36.1514 25.4668 36.1673 27.3958 35.5256C29.5254 34.9113 30.6917 33.0679 30.6917 30.859C30.7509 28.9767 29.7252 27.1707 27.9792 26.4915C26.0734 25.699 23.4155 25.6516 21.3583 25.953Z" fill="#31A8FF"/>
<path d="M55.2416 34.0184C54.3591 33.5534 53.4192 33.2131 52.4476 33.007C51.199 32.7132 46.2745 31.6843 46.2726 34.2592C46.3163 35.6968 48.5983 36.4011 49.6066 36.8118C53.1462 38.0271 57.1517 40.1993 57.073 44.566C57.1812 50.002 51.9143 52.1751 47.3996 52.1757C45.0492 52.2 42.6007 51.8359 40.4497 50.8271C40.2444 50.7183 40.1122 50.4859 40.121 50.2491V45.0476C40.0978 44.839 40.3217 44.6568 40.4967 44.8068C42.6042 46.0814 45.1023 46.7002 47.5404 46.7333C48.6167 46.7333 50.7498 46.6289 50.7336 45.0476C50.7336 43.53 48.1819 42.8323 47.1647 42.4468C45.6903 41.9204 44.2922 41.1914 43.0089 40.2795C41.2155 39.0003 40.0904 36.9492 40.121 34.6927C40.1105 29.5742 44.9587 27.2768 49.3249 27.2757C51.366 27.2589 53.5579 27.41 55.458 28.2389C55.7312 28.3194 55.7878 28.6071 55.7867 28.865V33.7294C55.804 34.0314 55.4686 34.1342 55.2416 34.0184Z" fill="#31A8FF"/>
</g>
<defs>
<clipPath id="clip0_170_525">
<rect width="70" height="70" fill="white"/>
</clipPath>
</defs>
</svg>
