<svg width="77" height="70" viewBox="0 0 77 70" fill="none" xmlns="http://www.w3.org/2000/svg">
<g clip-path="url(#clip0_170_206)">
<path d="M7.94446 35C7.94446 54.0754 23.3349 69.5395 42.3195 69.5395C61.304 69.5395 76.6945 54.0754 76.6945 35H42.3195H7.94446Z" fill="#DC4C2C"/>
<path d="M42.3195 0.460449V34.9999H76.6945C76.6945 15.9245 61.304 0.460449 42.3195 0.460449Z" fill="#F7A278"/>
<path d="M42.3195 0.460449C23.3349 0.460449 7.94446 15.9245 7.94446 34.9999H42.3195V0.460449Z" fill="#C06346"/>
<path d="M35.2897 54.1887H3.51579C1.74356 54.1887 0.305542 52.7438 0.305542 50.9631V19.0371C0.305542 17.2564 1.74356 15.8115 3.51579 15.8115H35.2897C37.062 15.8115 38.5 17.2564 38.5 19.0371V50.9631C38.5 52.7438 37.062 54.1887 35.2897 54.1887Z" fill="#9B341F"/>
<path d="M20.688 25.4287H11.7639V44.6173H15.6292V37.861H19.9757C23.5584 37.861 26.463 34.9424 26.463 31.3426V31.2313C26.463 28.0268 23.8773 25.4287 20.688 25.4287ZM22.4011 31.8492C22.4011 33.4975 21.07 34.835 19.4295 34.835H15.6292V28.4548H19.4295C21.07 28.4548 22.4011 29.7922 22.4011 31.4405V31.8492Z" fill="white"/>
</g>
<defs>
<clipPath id="clip0_170_206">
<rect width="77" height="70" fill="white"/>
</clipPath>
</defs>
</svg>
