<svg width="80" height="80" viewBox="0 0 80 80" fill="none" xmlns="http://www.w3.org/2000/svg">
<path d="M39.9499 51.36L50.7566 63.6466C54.7566 68.1966 56.7599 70.4733 58.8566 69.9166C60.9499 69.3633 61.6699 66.37 63.1066 60.38L71.0733 27.1533C73.2899 17.9266 74.3966 13.3166 71.9366 11.04C69.4766 8.7633 65.2133 10.4566 56.6866 13.84L17.1333 29.55C10.3133 32.26 6.90328 33.6133 6.68662 35.94C6.6611 36.1771 6.6611 36.4162 6.68662 36.6533C6.89662 38.9833 10.2999 40.3466 17.1133 43.0766C20.1966 44.3133 21.74 44.9333 22.8466 46.1166C22.9711 46.25 23.0911 46.3877 23.2066 46.53C24.2266 47.7966 24.66 49.4633 25.53 52.7833L27.1599 59.0066C28.0033 62.24 28.4266 63.86 29.5366 64.08C30.6466 64.3 31.6099 62.96 33.5399 60.2766L39.9499 51.36ZM39.9499 51.36L38.8933 50.26C37.6866 49 37.0833 48.3733 37.0833 47.5933C37.0833 46.8133 37.6833 46.1833 38.8933 44.9266L50.8033 32.5133" stroke="#3A3E6D" stroke-width="6" stroke-linecap="round" stroke-linejoin="round"/>
</svg>
