<svg width="60" height="60" viewBox="0 0 60 60" fill="none" xmlns="http://www.w3.org/2000/svg">
<path d="M30.0006 1.00049C13.7653 1.00049 0.588867 14.177 0.588867 30.4123C0.588867 46.6475 13.7653 59.824 30.0006 59.824C46.2359 59.824 59.4124 46.6475 59.4124 30.4123C59.4124 14.177 46.2359 1.00049 30.0006 1.00049ZM43.6477 21.0005C43.2065 25.6475 41.2947 36.9417 40.3242 42.1475C39.9124 44.3534 39.0889 45.0887 38.3242 45.177C36.6183 45.324 35.3242 44.0593 33.6771 42.9711C31.0889 41.2652 29.6183 40.2064 27.1183 38.5593C24.2065 36.6475 26.0889 35.5887 27.7653 33.8828C28.2065 33.4417 35.7359 26.5887 35.883 25.9711C35.9034 25.8775 35.9007 25.7804 35.8751 25.6881C35.8494 25.5959 35.8017 25.5113 35.7359 25.4417C35.5595 25.2946 35.3242 25.3534 35.1183 25.3828C34.8536 25.4417 30.7359 28.177 22.7065 33.5887C21.53 34.3828 20.4712 34.7946 19.53 34.7652C18.4712 34.7358 16.4712 34.177 14.9712 33.677C13.1183 33.0887 11.6771 32.7652 11.7947 31.7358C11.8536 31.2064 12.5889 30.677 13.9712 30.1181C22.5595 26.3828 28.2653 23.9123 31.1183 22.7358C39.2947 19.324 40.9712 18.7358 42.0889 18.7358C42.3242 18.7358 42.883 18.7946 43.2359 19.0887C43.53 19.324 43.6183 19.6475 43.6477 19.8828C43.6183 20.0593 43.6771 20.5887 43.6477 21.0005Z" fill="#3B414F"/>
</svg>
