<svg width="60" height="60" viewBox="0 0 60 60" fill="none" xmlns="http://www.w3.org/2000/svg">
<g clip-path="url(#clip0_199_17)">
<path fill-rule="evenodd" clip-rule="evenodd" d="M29.9997 1.00049C13.7555 1.00049 0.587891 14.1681 0.587891 30.4123C0.587891 35.9711 2.13201 41.177 4.8173 45.6122L2.19377 54.5299C2.04314 55.0419 2.03323 55.585 2.16508 56.1022C2.29693 56.6194 2.56568 57.0915 2.94306 57.4688C3.32045 57.8462 3.79254 58.115 4.3097 58.2468C4.82687 58.3787 5.37 58.3688 5.88201 58.2181L14.7997 55.5946C19.3842 58.368 24.6415 59.8308 29.9997 59.824C46.2438 59.824 59.4114 46.6564 59.4114 30.4123C59.4114 14.1681 46.2438 1.00049 29.9997 1.00049ZM23.3467 37.0681C29.2967 43.0152 34.9761 43.8005 36.982 43.874C40.032 43.9858 43.0026 41.6564 44.1585 38.9534C44.3032 38.6169 44.3555 38.2479 44.31 37.8844C44.2645 37.521 44.1228 37.1762 43.8997 36.8858C42.2879 34.827 40.1085 33.3475 37.9791 31.877C37.5347 31.5688 36.9881 31.4451 36.4544 31.5317C35.9206 31.6184 35.4413 31.9088 35.1173 32.3417L33.3526 35.0328C33.2593 35.177 33.1148 35.2802 32.9482 35.3218C32.7816 35.3633 32.6055 35.3399 32.4555 35.2564C31.2585 34.5711 29.5144 33.4064 28.2614 32.1534C27.0085 30.9005 25.9144 29.2358 25.2997 28.1152C25.2253 27.9724 25.2043 27.8078 25.2404 27.6509C25.2765 27.494 25.3674 27.3552 25.4967 27.2593L28.2144 25.2417C28.6033 24.9052 28.8544 24.437 28.9196 23.9268C28.9847 23.4166 28.8593 22.9004 28.5673 22.477C27.2497 20.5475 25.7144 18.0946 23.4879 16.4681C23.1999 16.2612 22.8634 16.1322 22.511 16.0936C22.1585 16.0549 21.8021 16.108 21.4761 16.2475C18.7702 17.4064 16.4291 20.377 16.5408 23.4328C16.6144 25.4387 17.3997 31.1181 23.3467 37.0681Z" fill="#3B414F"/>
</g>
<defs>
<clipPath id="clip0_199_17">
<rect width="60" height="60" fill="white"/>
</clipPath>
</defs>
</svg>
