<svg width="80" height="80" viewBox="0 0 80 80" fill="none" xmlns="http://www.w3.org/2000/svg">
<path d="M73.3333 39.9998C73.3333 58.4098 58.41 73.3332 40 73.3332C34.1484 73.3412 28.3987 71.8026 23.3333 68.8732L6.66663 71.6665L9.43997 53.3332C7.60778 49.1269 6.66364 44.5878 6.66663 39.9998C6.66663 21.5898 21.59 6.6665 40 6.6665C58.41 6.6665 73.3333 21.5898 73.3333 39.9998Z" stroke="#3A3E6D" stroke-width="6" stroke-linecap="round" stroke-linejoin="round"/>
<path d="M43.1999 46.2263L50.1333 44.873L56.6666 47.383V53.4597C56.6666 55.483 54.9266 57.0263 52.9666 56.593C47.8899 55.4797 38.6666 52.6797 32.2599 46.2263C26.1599 40.083 24.0766 31.5263 23.3666 26.803C23.0833 24.913 24.5799 23.333 26.4766 23.333H32.7899L35.2399 29.8963L33.9433 36.8997" stroke="#3A3E6D" stroke-width="6" stroke-linecap="round" stroke-linejoin="round"/>
</svg>
