<svg width="80" height="80" viewBox="0 0 80 80" fill="none" xmlns="http://www.w3.org/2000/svg">
<path d="M73.3334 39.9998C73.3334 58.4098 58.4101 73.3332 40.0001 73.3332C34.1486 73.3412 28.3989 71.8026 23.3334 68.8732L6.66676 71.6665L9.44009 53.3332C7.60791 49.1269 6.66376 44.5878 6.66676 39.9998C6.66676 21.5898 21.5901 6.6665 40.0001 6.6665C58.4101 6.6665 73.3334 21.5898 73.3334 39.9998Z" stroke="#8387C4" stroke-width="6" stroke-linecap="round" stroke-linejoin="round"/>
<path d="M43.2002 46.2263L50.1335 44.873L56.6668 47.383V53.4597C56.6668 55.483 54.9268 57.0263 52.9668 56.593C47.8902 55.4797 38.6668 52.6797 32.2602 46.2263C26.1602 40.083 24.0768 31.5263 23.3668 26.803C23.0835 24.913 24.5802 23.333 26.4768 23.333H32.7902L35.2402 29.8963L33.9435 36.8997" stroke="#8387C4" stroke-width="6" stroke-linecap="round" stroke-linejoin="round"/>
</svg>
