<svg width="42" height="52" viewBox="0 0 42 52" fill="none" xmlns="http://www.w3.org/2000/svg">
<path d="M2.86893 0.00529021C2.47327 -0.0195135 2.07701 0.0431149 1.70828 0.188727C1.33956 0.334338 1.00742 0.55936 0.735469 0.847808C0.463515 1.13626 0.258418 1.48105 0.134745 1.8577C0.0110726 2.23435 -0.0281408 2.63362 0.019891 3.02713L4.10067 46.8141C4.36149 48.9406 6.87465 49.9315 8.51571 48.5545L17.1271 41.5713L20.9881 48.2592C23.2086 52.105 26.7315 53.05 30.5774 50.8296C34.4233 48.6091 35.3672 45.085 33.1467 41.2392L29.2992 34.5756L39.5031 30.6638C41.5162 29.931 41.9152 27.2586 40.2051 25.9696L4.32369 0.54205C3.90153 0.224639 3.39609 0.0380162 2.86893 0.00529021Z" fill="#0A1123"/>
</svg>
