<svg width="54" height="54" viewBox="0 0 54 54" fill="none" xmlns="http://www.w3.org/2000/svg">
<path d="M7.7171 1.2669C7.25627 1.531 6.88357 1.92516 6.64564 2.40004C6.40772 2.87492 6.31515 3.40943 6.37952 3.93666L10.4598 47.7236C10.7206 49.8496 13.2348 50.8405 14.8753 49.4635L22.5514 43.0213L26.4124 49.7092C28.6329 53.5546 33.0922 53.959 36.937 51.7385C40.7835 49.5181 42.6627 45.4546 40.4422 41.6092L36.5947 34.9451L45.8632 31.5728C47.8758 30.84 48.2749 28.1681 46.5642 26.8791L10.6833 1.45158C10.2612 1.134 9.75515 0.947226 9.2279 0.914399C8.70066 0.881572 8.17537 1.00413 7.7171 1.2669ZM12.5112 9.58722L39.3411 28.1994L28.6961 32.0728L28.7458 32.15L35.7658 44.3092C36.5369 45.6446 35.5735 46.291 34.2376 47.0621C32.9016 47.8333 31.8605 48.3446 31.0894 47.0092L24.0694 34.85L24.0138 34.7431L15.215 42.1287L12.5112 9.58722Z" fill="#0A1123"/>
</svg>
