<svg width="388" height="28" viewBox="0 0 388 28" fill="none" xmlns="http://www.w3.org/2000/svg">
<path d="M0.275568 27V0.818181H17.6491V5.3821H5.81108V10.4957H10.0682C12.1392 10.4957 13.9247 10.8324 15.4247 11.5057C16.9332 12.1705 18.0966 13.1122 18.9148 14.331C19.733 15.5497 20.142 16.9858 20.142 18.6392C20.142 20.2841 19.733 21.7372 18.9148 22.9986C18.0966 24.2514 16.9332 25.2315 15.4247 25.9389C13.9247 26.6463 12.1392 27 10.0682 27H0.275568ZM5.81108 22.5511H10.0682C11.0568 22.5511 11.892 22.3722 12.5739 22.0142C13.2557 21.6477 13.7713 21.1662 14.1207 20.5696C14.4787 19.9645 14.6577 19.304 14.6577 18.5881C14.6577 17.5483 14.2614 16.6705 13.4688 15.9545C12.6847 15.2301 11.5511 14.8679 10.0682 14.8679H5.81108V22.5511ZM28.2376 27H22.3058L31.3441 0.818181H38.4776L47.5032 27H41.5714L35.0131 6.80114H34.8086L28.2376 27ZM27.8668 16.7088H41.8782V21.0298H27.8668V16.7088ZM60.1786 27.358C58.2695 27.358 56.5692 27.0298 55.0778 26.3736C53.5948 25.7088 52.4229 24.7969 51.5621 23.6378C50.7099 22.4702 50.271 21.1236 50.2454 19.598H55.8192C55.8533 20.2372 56.0621 20.7997 56.4457 21.2855C56.8377 21.7628 57.3576 22.1335 58.0053 22.3977C58.6531 22.6619 59.3817 22.794 60.1914 22.794C61.0352 22.794 61.7809 22.6449 62.4286 22.3466C63.0763 22.0483 63.5835 21.6349 63.9499 21.1065C64.3164 20.5781 64.4996 19.9687 64.4996 19.2784C64.4996 18.5795 64.3036 17.9616 63.9116 17.4247C63.5281 16.8793 62.9741 16.4531 62.2496 16.1463C61.5337 15.8395 60.6815 15.6861 59.6928 15.6861H57.2511V11.6207H59.6928C60.5281 11.6207 61.2653 11.4759 61.9045 11.1861C62.5522 10.8963 63.055 10.4957 63.413 9.98438C63.771 9.46449 63.9499 8.85938 63.9499 8.16903C63.9499 7.51278 63.7923 6.9375 63.4769 6.44318C63.1701 5.94034 62.7354 5.5483 62.1729 5.26705C61.619 4.9858 60.9712 4.84517 60.2298 4.84517C59.4798 4.84517 58.7937 4.98153 58.1715 5.25426C57.5494 5.51846 57.0508 5.89773 56.6758 6.39205C56.3008 6.88636 56.1005 7.46591 56.0749 8.13068H50.7695C50.7951 6.62216 51.2255 5.29261 52.0607 4.14205C52.896 2.99148 54.021 2.09233 55.4357 1.4446C56.859 0.788351 58.4656 0.460226 60.2553 0.460226C62.0621 0.460226 63.6431 0.788351 64.9982 1.4446C66.3533 2.10085 67.4059 2.98721 68.1559 4.10369C68.9144 5.21165 69.2894 6.45597 69.2809 7.83665C69.2894 9.30256 68.8335 10.5256 67.913 11.5057C67.0011 12.4858 65.8121 13.108 64.3462 13.3722V13.5767C66.2724 13.8239 67.7383 14.4929 68.744 15.5838C69.7582 16.6662 70.261 18.0213 70.2525 19.6491C70.261 21.1406 69.8306 22.4659 68.9613 23.625C68.1005 24.7841 66.9116 25.696 65.3945 26.3608C63.8775 27.0256 62.1388 27.358 60.1786 27.358ZM74.3849 0.818181H79.9077V17.2841H80.125L91.4389 0.818181H96.2841V27H90.7486V10.5213H90.5568L79.179 27H74.3849V0.818181ZM123.958 9.98438H118.359C118.257 9.25994 118.048 8.61648 117.733 8.05398C117.417 7.48295 117.012 6.99716 116.518 6.59659C116.024 6.19602 115.453 5.8892 114.805 5.67614C114.166 5.46307 113.471 5.35653 112.721 5.35653C111.366 5.35653 110.186 5.69318 109.18 6.36648C108.174 7.03125 107.395 8.00284 106.841 9.28125C106.287 10.5511 106.01 12.0937 106.01 13.9091C106.01 15.7756 106.287 17.3437 106.841 18.6136C107.403 19.8835 108.187 20.8423 109.193 21.4901C110.199 22.1378 111.362 22.4616 112.683 22.4616C113.424 22.4616 114.11 22.3636 114.741 22.1676C115.38 21.9716 115.947 21.6861 116.441 21.3111C116.936 20.9276 117.345 20.4631 117.669 19.9176C118.001 19.3722 118.231 18.75 118.359 18.0511L123.958 18.0767C123.814 19.2784 123.451 20.4375 122.872 21.554C122.301 22.6619 121.529 23.6548 120.558 24.5327C119.595 25.402 118.444 26.0923 117.106 26.6037C115.777 27.1065 114.272 27.358 112.593 27.358C110.258 27.358 108.17 26.8295 106.329 25.7727C104.497 24.7159 103.048 23.1861 101.983 21.1832C100.926 19.1804 100.397 16.7557 100.397 13.9091C100.397 11.054 100.934 8.625 102.008 6.62216C103.082 4.61932 104.539 3.09375 106.38 2.04545C108.221 0.988636 110.292 0.460226 112.593 0.460226C114.11 0.460226 115.517 0.673295 116.812 1.09943C118.116 1.52557 119.271 2.14773 120.277 2.96591C121.282 3.77557 122.1 4.76846 122.731 5.9446C123.37 7.12074 123.779 8.46733 123.958 9.98438ZM154.912 11.9787V16.4148H143.624V11.9787H154.912ZM135.825 18.4219H141.335C141.429 19.9219 141.898 21.0511 142.741 21.8097C143.585 22.5682 144.834 22.9474 146.487 22.9474C147.834 22.9474 148.903 22.6321 149.696 22.0014C150.489 21.3707 151.06 20.4631 151.409 19.2784C151.759 18.0852 151.933 16.6577 151.933 14.9957V12.8736C151.933 11.1605 151.733 9.71591 151.332 8.53977C150.94 7.35511 150.339 6.46023 149.53 5.85511C148.729 5.25 147.702 4.94744 146.449 4.94744C145.213 4.94744 144.233 5.13494 143.509 5.50994C142.784 5.88494 142.256 6.42187 141.923 7.12074C141.591 7.81108 141.386 8.64631 141.31 9.62642H135.8C135.97 7.90483 136.464 6.35369 137.283 4.97301C138.109 3.58381 139.281 2.48437 140.798 1.67472C142.324 0.865056 144.207 0.460226 146.449 0.460226C148.673 0.460226 150.604 0.967328 152.24 1.98153C153.876 2.99574 155.142 4.43182 156.037 6.28977C156.932 8.14773 157.379 10.3466 157.379 12.8864V15.0085C157.379 17.5483 156.94 19.7429 156.062 21.5923C155.193 23.4332 153.945 24.8565 152.317 25.8622C150.689 26.8594 148.746 27.358 146.487 27.358C144.331 27.358 142.482 26.983 140.939 26.233C139.396 25.4744 138.19 24.4261 137.321 23.0881C136.452 21.7415 135.953 20.1861 135.825 18.4219ZM160.048 27V22.5511L160.789 22.4872C161.744 22.4105 162.515 22.0483 163.103 21.4006C163.691 20.7443 164.13 19.7003 164.42 18.2685C164.718 16.8281 164.91 14.8935 164.995 12.4645L165.43 0.818181H183.2V27H177.818V5.25426H170.569L170.16 14.3693C170.024 17.3011 169.674 19.696 169.112 21.554C168.558 23.4119 167.672 24.7841 166.453 25.6705C165.243 26.5568 163.585 27 161.48 27H160.048ZM187.764 27V0.818181H205.406V5.3821H193.299V11.6207H204.498V16.1847H193.299V22.4361H205.457V27H187.764ZM225.646 27L217.234 15.8395H215.342V27H209.807V0.818181H215.342V11.2756H216.455L225.148 0.818181H232.038L221.824 12.9631L232.511 27H225.646ZM234.298 5.3821V0.818181H255.801V5.3821H247.785V27H242.314V5.3821H234.298ZM259.342 27V0.818181H269.672C271.657 0.818181 273.349 1.19744 274.747 1.95597C276.145 2.70597 277.21 3.75 277.943 5.08807C278.684 6.41761 279.055 7.9517 279.055 9.69034C279.055 11.429 278.68 12.9631 277.93 14.2926C277.18 15.6222 276.093 16.6577 274.67 17.3991C273.255 18.1406 271.542 18.5114 269.531 18.5114H262.947V14.0753H268.636C269.701 14.0753 270.579 13.892 271.27 13.5256C271.968 13.1506 272.488 12.6349 272.829 11.9787C273.179 11.3139 273.353 10.5511 273.353 9.69034C273.353 8.82102 273.179 8.0625 272.829 7.41477C272.488 6.75852 271.968 6.25142 271.27 5.89347C270.571 5.52699 269.684 5.34375 268.61 5.34375H264.877V27H259.342ZM306.71 13.9091C306.71 16.7642 306.169 19.1932 305.087 21.196C304.013 23.1989 302.547 24.7287 300.689 25.7855C298.839 26.8338 296.76 27.358 294.45 27.358C292.124 27.358 290.036 26.8295 288.186 25.7727C286.337 24.7159 284.875 23.1861 283.801 21.1832C282.727 19.1804 282.19 16.7557 282.19 13.9091C282.19 11.054 282.727 8.625 283.801 6.62216C284.875 4.61932 286.337 3.09375 288.186 2.04545C290.036 0.988636 292.124 0.460226 294.45 0.460226C296.76 0.460226 298.839 0.988636 300.689 2.04545C302.547 3.09375 304.013 4.61932 305.087 6.62216C306.169 8.625 306.71 11.054 306.71 13.9091ZM301.098 13.9091C301.098 12.0597 300.821 10.5 300.267 9.23011C299.722 7.96023 298.95 6.99716 297.953 6.34091C296.956 5.68466 295.788 5.35653 294.45 5.35653C293.112 5.35653 291.945 5.68466 290.947 6.34091C289.95 6.99716 289.175 7.96023 288.621 9.23011C288.075 10.5 287.803 12.0597 287.803 13.9091C287.803 15.7585 288.075 17.3182 288.621 18.5881C289.175 19.858 289.95 20.821 290.947 21.4773C291.945 22.1335 293.112 22.4616 294.45 22.4616C295.788 22.4616 296.956 22.1335 297.953 21.4773C298.95 20.821 299.722 19.858 300.267 18.5881C300.821 17.3182 301.098 15.7585 301.098 13.9091ZM318.146 5.3821V0.818181H339.648V5.3821H331.633V27H326.161V5.3821H318.146ZM343.19 27V0.818181H360.832V5.3821H348.725V11.6207H359.924V16.1847H348.725V22.4361H360.883V27H343.19ZM370.423 0.818181L375.703 9.74148H375.907L381.213 0.818181H387.464L379.474 13.9091L387.643 27H381.277L375.907 18.0639H375.703L370.333 27H363.993L372.187 13.9091L364.146 0.818181H370.423Z" fill="#F3F3FA"/>
</svg>
