<svg width="200" height="48" viewBox="0 0 200 48" fill="none" xmlns="http://www.w3.org/2000/svg">
<path d="M70.3797 4.90453C69.6053 3.46282 68.3704 2.30243 66.8593 1.5966C65.3482 0.890766 63.642 0.677342 61.9955 0.988196C52.4309 2.83505 43.8191 7.82795 37.6187 15.1213C31.4183 7.82795 22.8066 2.83505 13.242 0.988196C11.5954 0.677342 9.88926 0.890766 8.37818 1.5966C6.8671 2.30243 5.63216 3.46282 4.85775 4.90453C1.66698 10.7952 0 17.3483 0 24.0008C0 30.6534 1.66698 37.2064 4.85775 43.0971C5.63339 44.5378 6.8685 45.6973 8.37922 46.4029C9.88995 47.1086 11.5955 47.3227 13.242 47.0135C22.8057 45.1644 31.4167 40.1719 37.6187 32.8804C43.8207 40.1719 52.4318 45.1644 61.9955 47.0135C63.642 47.3227 65.3475 47.1086 66.8582 46.4029C68.369 45.6973 69.6041 44.5378 70.3797 43.0971C73.5705 37.2064 75.2375 30.6534 75.2375 24.0008C75.2375 17.3483 73.5705 10.7952 70.3797 4.90453ZM26.6657 25.4427C25.525 27.2997 23.9957 28.9049 22.1761 30.1547C20.3565 31.4046 18.2869 32.2714 16.1006 32.6996C15.4798 32.8149 14.8372 32.7337 14.2676 32.4681C13.698 32.2025 13.2317 31.7664 12.9375 31.2244C11.7341 29.0036 11.1054 26.5329 11.1054 24.0246C11.1054 21.5164 11.7341 19.0457 12.9375 16.8249C13.231 16.2819 13.697 15.8449 14.2666 15.5784C14.8362 15.3119 15.4793 15.23 16.1006 15.3449C18.2867 15.7704 20.357 16.6336 22.1788 17.8791C24.0007 19.1247 25.5339 20.7251 26.6804 22.578C26.9458 23.0115 27.0859 23.5063 27.0859 24.0103C27.0859 24.5144 26.9458 25.0092 26.6804 25.4427H26.6657ZM62.2853 31.2006C61.991 31.7426 61.5247 32.1787 60.9551 32.4443C60.3856 32.7099 59.7429 32.7911 59.1221 32.6758C56.9351 32.2528 54.8637 31.3906 53.0415 30.1449C51.2193 28.8991 49.6867 27.2973 48.5423 25.4427C48.2722 25.0064 48.1295 24.5072 48.1295 23.9984C48.1295 23.4897 48.2722 22.9905 48.5423 22.5542C49.6883 20.701 51.2214 19.1002 53.0434 17.8546C54.8653 16.609 56.9358 15.7461 59.1221 15.3211C59.7435 15.2062 60.3865 15.2881 60.9561 15.5546C61.5258 15.8211 61.9918 16.2581 62.2853 16.8011C63.4887 19.0219 64.1174 21.4926 64.1174 24.0008C64.1174 26.5091 63.4887 28.9798 62.2853 31.2006Z" fill="#FF592A"/>
<path d="M91.4634 5.24463H97.8486V42.0763H91.4634V5.24463ZM106.591 13.6864C108.381 13.6665 110.153 14.0339 111.778 14.7618C113.34 15.4675 114.729 16.4861 115.855 17.7502C117.043 19.1063 117.954 20.6697 118.537 22.3566C119.82 26.1888 119.82 30.3162 118.537 34.1484C117.951 35.8372 117.041 37.4034 115.855 38.7643C114.715 40.0618 113.294 41.1 111.693 41.8049C110.092 42.5097 108.35 42.864 106.591 42.8424C104.813 42.8961 103.048 42.5234 101.454 41.7574C100.072 41.0437 98.9002 40.0004 98.0499 38.7262C97.1323 37.3147 96.4959 35.749 96.1737 34.1104C95.4205 30.2568 95.4205 26.3005 96.1737 22.447C96.4947 20.8065 97.1312 19.2391 98.0499 17.8264C98.8987 16.5519 100.066 15.5059 101.444 14.7856C103.038 14.0071 104.808 13.6291 106.591 13.6864ZM105.27 19.4634C104.16 19.4397 103.057 19.6491 102.038 20.0772C101.128 20.475 100.331 21.0808 99.715 21.8427C99.0591 22.6696 98.5783 23.6141 98.3004 24.6217C97.9652 25.8076 97.7999 27.0325 97.8093 28.262C97.7984 29.4704 97.9503 30.6749 98.2611 31.8452C98.5199 32.8528 98.9823 33.8006 99.6217 34.6338C100.231 35.4023 101.023 36.0162 101.93 36.423C102.976 36.8724 104.112 37.0902 105.255 37.0607C106.384 37.0829 107.505 36.8704 108.541 36.4373C109.458 36.0366 110.264 35.4317 110.894 34.6719C111.55 33.8491 112.024 32.9049 112.289 31.8976C112.61 30.7111 112.765 29.4884 112.751 28.262C112.765 27.0544 112.61 25.8506 112.289 24.6835C112.019 23.6782 111.545 22.7351 110.894 21.9093C110.27 21.1344 109.463 20.516 108.541 20.1058C107.513 19.6615 106.396 19.4422 105.27 19.4634Z" fill="#F3F3FA"/>
<path d="M171.964 5.24463H178.349V42.0763H171.964V5.24463ZM187.092 13.6864C188.882 13.6665 190.654 14.0339 192.279 14.7618C193.841 15.4675 195.23 16.4861 196.356 17.7502C197.544 19.1063 198.454 20.6697 199.037 22.3566C200.321 26.1888 200.321 30.3162 199.037 34.1484C198.452 35.8372 197.542 37.4034 196.356 38.7643C195.216 40.0618 193.795 41.1 192.194 41.8049C190.592 42.5097 188.851 42.864 187.092 42.8424C185.313 42.8961 183.549 42.5234 181.954 41.7574C180.572 41.0437 179.401 40.0004 178.551 38.7262C177.633 37.3147 176.997 35.749 176.674 34.1104C175.921 30.2568 175.921 26.3005 176.674 22.447C176.995 20.8065 177.632 19.2391 178.551 17.8264C179.399 16.5519 180.567 15.5059 181.945 14.7856C183.538 14.0071 185.308 13.6291 187.092 13.6864ZM185.771 19.4634C184.66 19.4397 183.558 19.6491 182.539 20.0772C181.629 20.475 180.831 21.0808 180.216 21.8427C179.56 22.6696 179.079 23.6141 178.801 24.6217C178.466 25.8076 178.301 27.0325 178.31 28.262C178.299 29.4704 178.451 30.6749 178.762 31.8452C179.021 32.8528 179.483 33.8006 180.122 34.6338C180.731 35.4023 181.523 36.0162 182.431 36.423C183.477 36.8724 184.613 37.0902 185.756 37.0607C186.885 37.0829 188.005 36.8704 189.042 36.4373C189.959 36.0366 190.765 35.4317 191.395 34.6719C192.05 33.8491 192.525 32.9049 192.79 31.8976C193.11 30.7111 193.266 29.4884 193.251 28.262C193.266 27.0544 193.11 25.8506 192.79 24.6835C192.519 23.6782 192.045 22.7351 191.395 21.9093C190.771 21.1344 189.964 20.516 189.042 20.1058C188.014 19.6615 186.897 19.4422 185.771 19.4634Z" fill="#F3F3FA"/>
<path d="M125.836 42.0759V4.48291H132.221V42.0759H125.836Z" fill="#F3F3FA"/>
<path d="M146.902 41.7809C145.207 41.1048 143.681 40.0841 142.428 38.7878C141.156 37.4536 140.177 35.8833 139.549 34.1719C138.184 30.3347 138.184 26.1649 139.549 22.3277C140.18 20.6245 141.163 19.0637 142.437 17.7404C143.699 16.4569 145.223 15.4424 146.912 14.7615C148.744 14.027 150.711 13.661 152.693 13.6861C154.692 13.658 156.676 14.0188 158.528 14.7473C160.226 15.4256 161.757 16.4459 163.017 17.7404C164.294 19.0729 165.277 20.6435 165.905 22.3563C167.261 26.1854 167.261 30.3428 165.905 34.1719C165.277 35.8847 164.294 37.4553 163.017 38.7878C161.757 40.0823 160.226 41.1026 158.528 41.7809C154.785 43.1958 150.63 43.1958 146.887 41.7809H146.902ZM155.925 36.4608C156.839 36.0693 157.645 35.4742 158.278 34.7239C158.961 33.9057 159.463 32.9596 159.751 31.9449C160.406 29.5224 160.406 26.9773 159.751 24.5548C159.469 23.5456 158.98 22.602 158.312 21.7805C157.687 21.0273 156.881 20.4341 155.964 20.0531C154.943 19.6445 153.847 19.4436 152.742 19.4631C151.642 19.4431 150.55 19.644 149.535 20.0531C148.624 20.4369 147.823 21.0298 147.202 21.7805C146.537 22.5973 146.051 23.5363 145.772 24.5405C145.435 25.7535 145.269 27.0054 145.281 28.2617C145.26 29.5154 145.426 30.7654 145.772 31.9734C146.063 32.9813 146.555 33.924 147.221 34.7477C147.846 35.4971 148.648 36.0896 149.559 36.4751C151.608 37.2714 153.896 37.2714 155.945 36.4751L155.925 36.4608Z" fill="#F3F3FA"/>
</svg>
