<svg width="242" height="56" viewBox="0 0 242 56" fill="none" xmlns="http://www.w3.org/2000/svg">
<circle cx="27.5229" cy="28" r="27.2544" stroke="#F3F3FA" stroke-width="0.537033"/>
<g filter="url(#filter0_d_170_564)">
<path d="M14.8672 18.1842C14.2944 16.8552 13.7559 15.9501 13.2518 15.469C12.7477 14.9649 12.026 14.667 11.0865 14.5753V13.8879C11.2011 13.8879 11.3729 13.8765 11.6021 13.8536C11.8083 13.8307 12.026 13.8192 12.2551 13.8192C13.4008 13.8192 14.5006 14.1171 15.5546 14.7128C16.6086 15.2857 17.5023 16.4428 18.2355 18.1842L24.1128 32.0354L26.1406 27.3266C27.103 25.104 28.9475 20.7161 31.6742 14.1629H33.324L23.4598 37.1909H22.8411L14.8672 18.1842Z" fill="#F3F3FA"/>
</g>
<g filter="url(#filter1_d_170_564)">
<path d="M42.5911 44.5371C41.4913 44.5371 40.4029 44.2392 39.3259 43.6435C38.249 43.0248 37.3898 41.8333 36.7482 40.069L35.8889 37.8349H26.2653L23.5157 44.3652H21.969L31.5927 21.681H32.6238L40.1852 40.069C40.758 41.3979 41.2965 42.3145 41.8006 42.8186C42.3047 43.2998 43.0265 43.5862 43.9659 43.6778V44.3652C43.5535 44.4798 43.0952 44.5371 42.5911 44.5371ZM26.7808 36.4601H35.2015L31.0771 26.4928L26.7808 36.4601Z" fill="#F3F3FA"/>
</g>
<path d="M81.8468 29.7017C80.8982 29.7017 79.9092 29.4494 78.8798 28.9448C77.8505 28.42 76.6698 27.4613 75.3376 26.0687L68.9798 19.4081V29.3989H66.2551V13.0503C66.2551 12.0209 66.1138 11.2641 65.8312 10.7797C65.5487 10.2751 64.9835 10.0228 64.1358 10.0228H63.5303V9.41727H66.2551C67.0019 9.41727 67.5569 9.51819 67.9202 9.72003C68.3037 9.90168 68.5762 10.2448 68.7376 10.7494C68.8991 11.254 68.9798 12.0209 68.9798 13.0503V18.954L75.3376 12.5962L75.9431 11.9604C76.5083 11.3751 76.9826 10.9209 77.3661 10.598C77.7496 10.2549 78.2037 9.97232 78.7285 9.7503C79.2532 9.52828 79.8386 9.41727 80.4844 9.41727H81.9982V10.1742C81.1505 10.1742 80.4138 10.3255 79.7881 10.6283C79.1624 10.9109 78.4358 11.4659 77.6083 12.2934L71.7046 18.1971L78.6679 25.4631C79.556 26.3714 80.4542 27.1384 81.3624 27.7641C82.2707 28.3696 83.0881 28.7228 83.8147 28.8237V29.3989C83.2092 29.6008 82.5532 29.7017 81.8468 29.7017ZM90.523 29.7017C89.1506 29.7017 87.9597 29.3787 86.9506 28.7329C85.9414 28.0668 85.1744 27.1687 84.6496 26.0384C84.1249 24.9081 83.8625 23.6567 83.8625 22.2842C83.8625 20.9118 84.1249 19.6604 84.6496 18.5301C85.1744 17.3998 85.9414 16.5118 86.9506 15.8659C87.9597 15.1998 89.1506 14.8668 90.523 14.8668C91.8955 14.8668 93.0863 15.1998 94.0955 15.8659C95.1047 16.5118 95.8717 17.3998 96.3964 18.5301C96.9212 19.6604 97.1836 20.9118 97.1836 22.2842C97.1836 23.6567 96.9212 24.9081 96.3964 26.0384C95.8717 27.1687 95.1047 28.0668 94.0955 28.7329C93.0863 29.3787 91.8955 29.7017 90.523 29.7017ZM90.523 28.4907C91.2698 28.4907 91.9258 28.2182 92.4909 27.6732C93.0762 27.1283 93.5203 26.3815 93.823 25.4329C94.146 24.4842 94.3074 23.4347 94.3074 22.2842C94.3074 21.1338 94.146 20.0842 93.823 19.1356C93.5203 18.187 93.0762 17.4402 92.4909 16.8953C91.9258 16.3503 91.2698 16.0778 90.523 16.0778C89.7762 16.0778 89.1102 16.3503 88.5249 16.8953C87.9597 17.4402 87.5157 18.187 87.1928 19.1356C86.89 20.0842 86.7386 21.1338 86.7386 22.2842C86.7386 23.4347 86.89 24.4842 87.1928 25.4329C87.5157 26.3815 87.9597 27.1283 88.5249 27.6732C89.1102 28.2182 89.7762 28.4907 90.523 28.4907ZM117.688 30.0044C115.892 30.0044 114.61 29.5705 113.843 28.7026C113.076 27.8145 112.693 26.5329 112.693 24.8576V18.3485L107.697 29.3989H107.092L101.945 18.0457V29.3989H100.734V15.1696H103.61L108.151 25.1604L112.693 15.1696H115.418V24.8576C115.418 26.0485 115.629 27.1081 116.053 28.0365C116.497 28.9448 117.042 29.3989 117.688 29.3989V30.0044ZM120.698 18.8026C120.698 17.7732 120.557 17.0164 120.274 16.532C119.992 16.0274 119.426 15.7751 118.579 15.7751H118.276V15.1696H132.203V29.3989H129.478V16.3806H123.423V29.3989H120.698V18.8026ZM137.022 18.8026C137.022 17.7732 136.88 17.0164 136.598 16.532C136.315 16.0274 135.75 15.7751 134.902 15.7751H134.297V15.1696H137.022C137.789 15.1696 138.364 15.2806 138.747 15.5026C139.151 15.7044 139.434 16.0475 139.595 16.532H139.747C140.11 16.0677 140.625 15.6742 141.291 15.3512C141.957 15.0283 142.804 14.8668 143.834 14.8668C145.569 14.8668 146.912 15.5732 147.86 16.9861C148.809 18.3787 149.283 20.1448 149.283 22.2842C149.283 24.4439 148.789 26.22 147.8 27.6127C146.831 29.0053 145.408 29.7017 143.531 29.7017C142.764 29.7017 142.088 29.6209 141.502 29.4595C140.917 29.298 140.332 29.076 139.747 28.7934V35.1512H137.022V18.8026ZM142.623 28.4907C143.914 28.4907 144.863 27.9255 145.469 26.7953C146.094 25.665 146.407 24.1613 146.407 22.2842C146.407 20.4274 146.114 18.9338 145.529 17.8035C144.944 16.6531 144.076 16.0778 142.925 16.0778C141.573 16.0778 140.514 16.6833 139.747 17.8943V27.5824C140.352 27.865 140.877 28.087 141.321 28.2485C141.765 28.4099 142.199 28.4907 142.623 28.4907ZM158.701 29.7017C157.329 29.7017 156.138 29.3787 155.129 28.7329C154.12 28.0668 153.353 27.1687 152.828 26.0384C152.303 24.9081 152.041 23.6567 152.041 22.2842C152.041 20.9118 152.303 19.6604 152.828 18.5301C153.353 17.3998 154.12 16.5118 155.129 15.8659C156.138 15.1998 157.329 14.8668 158.701 14.8668C160.074 14.8668 161.265 15.1998 162.274 15.8659C163.283 16.5118 164.05 17.3998 164.575 18.5301C165.1 19.6604 165.362 20.9118 165.362 22.2842C165.362 23.6567 165.1 24.9081 164.575 26.0384C164.05 27.1687 163.283 28.0668 162.274 28.7329C161.265 29.3787 160.074 29.7017 158.701 29.7017ZM158.701 28.4907C159.448 28.4907 160.104 28.2182 160.669 27.6732C161.255 27.1283 161.699 26.3815 162.001 25.4329C162.324 24.4842 162.486 23.4347 162.486 22.2842C162.486 21.1338 162.324 20.0842 162.001 19.1356C161.699 18.187 161.255 17.4402 160.669 16.8953C160.104 16.3503 159.448 16.0778 158.701 16.0778C157.955 16.0778 157.289 16.3503 156.703 16.8953C156.138 17.4402 155.694 18.187 155.371 19.1356C155.068 20.0842 154.917 21.1338 154.917 22.2842C154.917 23.4347 155.068 24.4842 155.371 25.4329C155.694 26.3815 156.138 27.1283 156.703 27.6732C157.289 28.2182 157.955 28.4907 158.701 28.4907ZM185.867 30.0044C184.07 30.0044 182.789 29.5705 182.022 28.7026C181.255 27.8145 180.871 26.5329 180.871 24.8576V18.3485L175.876 29.3989H175.27L170.123 18.0457V29.3989H168.912V15.1696H171.789L176.33 25.1604L180.871 15.1696H183.596V24.8576C183.596 26.0485 183.808 27.1081 184.232 28.0365C184.676 28.9448 185.221 29.3989 185.867 29.3989V30.0044ZM188.997 18.8026C188.997 17.7732 188.856 17.0164 188.574 16.532C188.291 16.0274 187.726 15.7751 186.878 15.7751H186.424V15.1696H188.997C189.744 15.1696 190.299 15.2705 190.663 15.4723C191.046 15.654 191.319 15.9971 191.48 16.5017C191.642 17.0063 191.722 17.7732 191.722 18.8026V26.6742L198.08 15.1696H200.805V29.3989H198.08V17.8943L191.722 29.3989H188.997V18.8026ZM211.003 29.7017C209.55 29.7017 208.319 29.3787 207.309 28.7329C206.321 28.0668 205.574 27.1787 205.069 26.0687C204.585 24.9384 204.343 23.6769 204.343 22.2842C204.343 20.8916 204.585 19.6402 205.069 18.5301C205.574 17.3998 206.321 16.5118 207.309 15.8659C208.319 15.1998 209.55 14.8668 211.003 14.8668C213.223 14.8668 214.687 15.22 215.393 15.9264C215.736 16.2696 215.948 16.6934 216.029 17.198C216.109 17.6824 216.15 18.5705 216.15 19.8622H215.544C215.464 18.6109 215.07 17.6723 214.364 17.0466C213.657 16.4008 212.739 16.0778 211.609 16.0778C210.155 16.0778 209.055 16.6531 208.309 17.8035C207.582 18.954 207.219 20.4475 207.219 22.2842C207.219 24.1209 207.582 25.6145 208.309 26.765C209.055 27.9154 210.155 28.4907 211.609 28.4907C212.638 28.4907 213.486 28.2989 214.152 27.9154C214.818 27.5118 215.433 26.8962 215.998 26.0687L216.604 26.5228C215.938 27.6531 215.151 28.4705 214.243 28.9751C213.334 29.4595 212.254 29.7017 211.003 29.7017ZM225.638 29.7017C224.185 29.7017 222.954 29.3787 221.944 28.7329C220.955 28.0668 220.209 27.1787 219.704 26.0687C219.22 24.9384 218.978 23.6769 218.978 22.2842C218.978 20.8916 219.22 19.6402 219.704 18.5301C220.209 17.3998 220.955 16.5118 221.944 15.8659C222.954 15.1998 224.185 14.8668 225.638 14.8668C227.858 14.8668 229.322 15.22 230.028 15.9264C230.371 16.2696 230.583 16.6934 230.664 17.198C230.744 17.6824 230.785 18.5705 230.785 19.8622H230.179C230.099 18.6109 229.705 17.6723 228.999 17.0466C228.292 16.4008 227.374 16.0778 226.244 16.0778C224.79 16.0778 223.69 16.6531 222.944 17.8035C222.217 18.954 221.854 20.4475 221.854 22.2842C221.854 24.1209 222.217 25.6145 222.944 26.765C223.69 27.9154 224.79 28.4907 226.244 28.4907C227.273 28.4907 228.121 28.2989 228.787 27.9154C229.453 27.5118 230.068 26.8962 230.633 26.0687L231.239 26.5228C230.573 27.6531 229.786 28.4705 228.878 28.9751C227.969 29.4595 226.889 29.7017 225.638 29.7017Z" fill="#F3F3FA"/>
<path d="M65.8334 45.3954H67.4584C67.5376 44.8318 67.7094 44.2945 67.9736 43.7837C68.2466 43.2729 68.5989 42.8281 69.0305 42.4494C69.4709 42.0619 69.9817 41.758 70.563 41.5378C71.1442 41.3088 71.7872 41.1943 72.4918 41.1943C73.3637 41.1943 74.1123 41.3485 74.7376 41.6567C75.3718 41.965 75.887 42.3525 76.2833 42.8193C76.6885 43.2861 76.9879 43.8013 77.1817 44.365C77.3754 44.9199 77.4723 45.4527 77.4723 45.9635C77.4723 46.6153 77.349 47.2318 77.1024 47.8131C76.8558 48.3943 76.5123 48.9052 76.072 49.3455C75.6316 49.7771 75.1031 50.1206 74.4866 50.376C73.8789 50.6314 73.214 50.7591 72.4918 50.7591C71.9017 50.7591 71.3072 50.671 70.7083 50.4949C70.1182 50.3099 69.5853 50.0237 69.1098 49.6362C68.6342 49.2487 68.2422 48.7554 67.934 48.1565C67.6345 47.5488 67.476 46.8222 67.4584 45.9767H65.8334V50.6006H64.6312V41.3529H65.8334V45.3954ZM72.4918 41.7756C72.1219 41.7756 71.7167 41.8505 71.2764 42.0002C70.8448 42.1499 70.4441 42.3921 70.0742 42.7268C69.7042 43.0527 69.3916 43.4843 69.1362 44.0215C68.8896 44.5499 68.7663 45.1973 68.7663 45.9635C68.7663 46.7298 68.8896 47.3815 69.1362 47.9188C69.3916 48.456 69.7042 48.892 70.0742 49.2266C70.4441 49.5613 70.8448 49.8035 71.2764 49.9532C71.7167 50.103 72.1219 50.1778 72.4918 50.1778C72.8529 50.1778 73.2448 50.103 73.6676 49.9532C74.0991 49.8035 74.4954 49.5613 74.8565 49.2266C75.2265 48.892 75.5347 48.456 75.7813 47.9188C76.0279 47.3815 76.1512 46.7298 76.1512 45.9635C76.1512 45.1885 76.0279 44.5367 75.7813 44.0083C75.5347 43.471 75.2265 43.0395 74.8565 42.7136C74.4954 42.3789 74.0991 42.1411 73.6676 42.0002C73.2448 41.8505 72.8529 41.7756 72.4918 41.7756ZM79.3264 53.9033V43.9951H80.4493V45.0652H80.5022C80.8281 44.2549 81.515 43.8498 82.5631 43.8498C83.0035 43.8498 83.4086 43.9334 83.7785 44.1008C84.1484 44.2593 84.4655 44.4927 84.7297 44.801C85.0027 45.1004 85.2141 45.4615 85.3638 45.8843C85.5136 46.307 85.5884 46.7826 85.5884 47.311C85.5884 47.8307 85.5136 48.3063 85.3638 48.7378C85.2141 49.1606 85.0027 49.5217 84.7297 49.8211C84.4655 50.1206 84.1484 50.354 83.7785 50.5213C83.4086 50.6799 83.0035 50.7591 82.5631 50.7591C82.3517 50.7591 82.1403 50.7371 81.929 50.6931C81.7264 50.649 81.5326 50.5786 81.3477 50.4817C81.1627 50.3848 80.9954 50.2571 80.8457 50.0986C80.7048 49.94 80.5903 49.7463 80.5022 49.5173H80.4493V53.9033H79.3264ZM80.4493 46.6373V47.7866C80.4493 48.1477 80.4978 48.4692 80.5947 48.751C80.7003 49.0329 80.8369 49.2751 81.0042 49.4777C81.1715 49.6714 81.3653 49.8211 81.5855 49.9268C81.8057 50.0237 82.0391 50.0721 82.2857 50.0721C82.5587 50.0721 82.8185 50.0237 83.0651 49.9268C83.3117 49.8211 83.5275 49.6582 83.7125 49.438C83.9062 49.209 84.0559 48.9184 84.1616 48.5661C84.2761 48.2138 84.3334 47.7866 84.3334 47.2846C84.3334 46.7914 84.2761 46.3687 84.1616 46.0164C84.0559 45.6641 83.9106 45.3778 83.7257 45.1576C83.5407 44.9375 83.3205 44.7789 83.0651 44.6821C82.8185 44.5764 82.5587 44.5235 82.2857 44.5235C82.0303 44.5235 81.7881 44.5808 81.5591 44.6953C81.3389 44.801 81.1451 44.9507 80.9778 45.1444C80.8104 45.3294 80.6783 45.554 80.5815 45.8182C80.4934 46.0736 80.4493 46.3466 80.4493 46.6373ZM88.4224 49.8211L91.7912 43.9951H93.1123V50.6006H91.9894V44.8142L88.6206 50.6006H87.2995V43.9951H88.4224V49.8211ZM101.047 50.0721H101.959V51.9877H101.034V50.6006H95.2209V51.9877H94.2961V50.0721H95.2473L97.7178 43.9951H98.5104L101.047 50.0721ZM97.8103 45.303L95.8682 50.0721H99.858L97.8895 45.303H97.8103ZM104.265 49.8211L107.634 43.9951H108.955V50.6006H107.832V44.8142L104.463 50.6006H103.142V43.9951H104.265V49.8211ZM114.485 47.3507V43.9951H115.608V50.6006H114.485V47.7999C114.124 47.9143 113.763 47.998 113.402 48.0509C113.041 48.0949 112.715 48.1169 112.425 48.1169C111.984 48.1169 111.645 48.0509 111.407 47.9188C111.169 47.7866 110.993 47.6281 110.879 47.4432C110.773 47.2582 110.711 47.0732 110.694 46.8883C110.676 46.6945 110.667 46.5448 110.667 46.4391V43.9951H111.79V46.4391C111.79 46.5272 111.795 46.6373 111.804 46.7694C111.821 46.8927 111.874 47.016 111.962 47.1393C112.05 47.2538 112.182 47.3551 112.358 47.4432C112.535 47.5224 112.79 47.5621 113.125 47.5621C113.222 47.5621 113.332 47.5532 113.455 47.5356C113.587 47.518 113.715 47.5004 113.838 47.4828C113.97 47.4564 114.094 47.4343 114.208 47.4167C114.323 47.3903 114.415 47.3683 114.485 47.3507ZM123.587 47.5885H118.566C118.566 48.1257 118.646 48.5661 118.804 48.9096C118.963 49.2531 119.161 49.5217 119.399 49.7154C119.636 49.9092 119.892 50.0457 120.165 50.125C120.447 50.1954 120.711 50.2307 120.958 50.2307C121.178 50.2307 121.376 50.2087 121.552 50.1646C121.737 50.1118 121.913 50.0413 122.081 49.9532C122.248 49.8652 122.411 49.7551 122.569 49.623C122.737 49.4909 122.913 49.3455 123.098 49.187L123.521 49.6098C123.168 49.9797 122.754 50.2659 122.279 50.4685C121.803 50.6622 121.283 50.7591 120.72 50.7591C120.139 50.7591 119.632 50.6622 119.201 50.4685C118.778 50.2659 118.425 50.0017 118.144 49.6758C117.871 49.3411 117.664 48.9668 117.523 48.5529C117.391 48.1301 117.325 47.6986 117.325 47.2582C117.325 46.7298 117.404 46.2586 117.562 45.8446C117.721 45.4219 117.941 45.0652 118.223 44.7745C118.505 44.4751 118.835 44.2505 119.214 44.1008C119.592 43.9422 120.006 43.863 120.456 43.863C120.878 43.863 121.279 43.9334 121.658 44.0743C122.036 44.2153 122.367 44.4266 122.649 44.7085C122.939 44.9903 123.168 45.347 123.336 45.7786C123.503 46.2101 123.587 46.721 123.587 47.311V47.5885ZM118.566 47.06H122.437C122.437 46.2057 122.261 45.5364 121.909 45.052C121.565 44.5588 121.081 44.3121 120.456 44.3121C120.13 44.3121 119.848 44.3914 119.61 44.5499C119.372 44.6997 119.174 44.9022 119.016 45.1576C118.866 45.4131 118.751 45.7081 118.672 46.0428C118.602 46.3687 118.566 46.7077 118.566 47.06ZM128.623 50.0721C128.984 50.0721 129.314 50.0149 129.614 49.9004C129.922 49.7771 130.23 49.5877 130.538 49.3323L130.922 49.8343C130.622 50.0633 130.252 50.2747 129.812 50.4685C129.38 50.6622 128.874 50.7591 128.293 50.7591C127.773 50.7591 127.306 50.671 126.892 50.4949C126.478 50.3099 126.122 50.0633 125.822 49.7551C125.531 49.438 125.307 49.0681 125.148 48.6454C124.99 48.2138 124.911 47.7514 124.911 47.2582C124.911 46.7914 124.981 46.351 125.122 45.9371C125.272 45.5232 125.492 45.1621 125.783 44.8538C126.073 44.5455 126.43 44.3033 126.853 44.1272C127.275 43.9422 127.764 43.8498 128.319 43.8498C128.583 43.8498 128.856 43.8762 129.138 43.929C129.429 43.9731 129.697 44.0611 129.944 44.1932C130.199 44.3165 130.424 44.4839 130.618 44.6953C130.811 44.8978 130.952 45.1576 131.04 45.4747H130.129C130.032 45.1665 129.834 44.9066 129.534 44.6953C129.235 44.4839 128.883 44.3782 128.478 44.3782C128.231 44.3782 127.971 44.431 127.698 44.5367C127.425 44.6336 127.174 44.7965 126.945 45.0255C126.725 45.2457 126.54 45.5452 126.39 45.9239C126.24 46.2938 126.166 46.7474 126.166 47.2846C126.166 47.8043 126.232 48.2446 126.364 48.6057C126.505 48.958 126.69 49.2443 126.919 49.4644C127.148 49.6758 127.407 49.8299 127.698 49.9268C127.998 50.0237 128.306 50.0721 128.623 50.0721ZM133.616 47.4035L136.892 43.9951H137.725L135.043 46.7958L136.773 49.0549C136.861 49.1694 136.958 49.2883 137.064 49.4116C137.178 49.5261 137.293 49.6362 137.407 49.7419C137.531 49.8388 137.65 49.918 137.764 49.9797C137.879 50.0413 137.989 50.0721 138.094 50.0721H138.464V50.6006C138.35 50.6358 138.218 50.671 138.068 50.7063C137.918 50.7415 137.764 50.7591 137.606 50.7591C137.429 50.7591 137.262 50.7283 137.104 50.6666C136.954 50.605 136.813 50.5213 136.681 50.4156C136.549 50.3099 136.425 50.191 136.311 50.0589C136.196 49.9268 136.086 49.7947 135.981 49.6626L134.343 47.5092L133.616 48.2754V50.6006H132.493V43.9951H133.616V47.4035ZM146.229 47.311C146.229 47.769 146.15 48.2094 145.991 48.6321C145.833 49.0461 145.604 49.4116 145.304 49.7287C145.014 50.0457 144.657 50.2967 144.234 50.4817C143.82 50.6666 143.354 50.7591 142.834 50.7591C142.306 50.7591 141.826 50.6666 141.394 50.4817C140.971 50.2879 140.61 50.0325 140.311 49.7154C140.02 49.3984 139.791 49.0329 139.624 48.6189C139.465 48.1962 139.386 47.7602 139.386 47.311C139.386 46.8531 139.465 46.4171 139.624 46.0032C139.791 45.5804 140.02 45.2105 140.311 44.8934C140.61 44.5764 140.971 44.3254 141.394 44.1404C141.826 43.9466 142.306 43.8498 142.834 43.8498C143.354 43.8498 143.82 43.9466 144.234 44.1404C144.657 44.3254 145.014 44.5764 145.304 44.8934C145.604 45.2105 145.833 45.5804 145.991 46.0032C146.15 46.4171 146.229 46.8531 146.229 47.311ZM144.974 47.311C144.974 46.6945 144.908 46.1969 144.776 45.8182C144.644 45.4307 144.472 45.1312 144.261 44.9199C144.049 44.7085 143.816 44.5676 143.561 44.4971C143.305 44.4178 143.059 44.3782 142.821 44.3782C142.583 44.3782 142.336 44.4178 142.081 44.4971C141.826 44.5676 141.588 44.7085 141.368 44.9199C141.156 45.1312 140.98 45.4307 140.839 45.8182C140.707 46.1969 140.641 46.6945 140.641 47.311C140.641 47.9188 140.707 48.4164 140.839 48.8039C140.98 49.1826 141.156 49.4777 141.368 49.689C141.588 49.9004 141.826 50.0457 142.081 50.125C142.336 50.1954 142.583 50.2307 142.821 50.2307C143.059 50.2307 143.305 50.1954 143.561 50.125C143.816 50.0457 144.049 49.9004 144.261 49.689C144.472 49.4777 144.644 49.1826 144.776 48.8039C144.908 48.4164 144.974 47.9188 144.974 47.311ZM153.815 47.5885H148.794C148.794 48.1257 148.874 48.5661 149.032 48.9096C149.191 49.2531 149.389 49.5217 149.627 49.7154C149.864 49.9092 150.12 50.0457 150.393 50.125C150.675 50.1954 150.939 50.2307 151.186 50.2307C151.406 50.2307 151.604 50.2087 151.78 50.1646C151.965 50.1118 152.141 50.0413 152.308 49.9532C152.476 49.8652 152.639 49.7551 152.797 49.623C152.965 49.4909 153.141 49.3455 153.326 49.187L153.748 49.6098C153.396 49.9797 152.982 50.2659 152.507 50.4685C152.031 50.6622 151.511 50.7591 150.948 50.7591C150.366 50.7591 149.86 50.6622 149.428 50.4685C149.006 50.2659 148.653 50.0017 148.372 49.6758C148.099 49.3411 147.892 48.9668 147.751 48.5529C147.619 48.1301 147.552 47.6986 147.552 47.2582C147.552 46.7298 147.632 46.2586 147.79 45.8446C147.949 45.4219 148.169 45.0652 148.451 44.7745C148.733 44.4751 149.063 44.2505 149.442 44.1008C149.82 43.9422 150.234 43.863 150.684 43.863C151.106 43.863 151.507 43.9334 151.886 44.0743C152.264 44.2153 152.595 44.4266 152.877 44.7085C153.167 44.9903 153.396 45.347 153.564 45.7786C153.731 46.2101 153.815 46.721 153.815 47.311V47.5885ZM148.794 47.06H152.665C152.665 46.2057 152.489 45.5364 152.137 45.052C151.793 44.5588 151.309 44.3121 150.684 44.3121C150.358 44.3121 150.076 44.3914 149.838 44.5499C149.6 44.6997 149.402 44.9022 149.244 45.1576C149.094 45.4131 148.979 45.7081 148.9 46.0428C148.83 46.3687 148.794 46.7077 148.794 47.06ZM161.276 44.5235V50.6006H160.154V43.9951H165.478V50.6006H164.355V44.5235H161.276ZM170.028 43.8498C170.671 43.8498 171.169 43.9422 171.521 44.1272C171.874 44.3033 172.129 44.5367 172.288 44.8274C172.455 45.118 172.552 45.4527 172.578 45.8314C172.605 46.2101 172.618 46.5976 172.618 46.994V50.6006H171.548V49.9532C171.292 50.1999 170.966 50.398 170.57 50.5477C170.174 50.6887 169.777 50.7591 169.381 50.7591C169.002 50.7591 168.668 50.6931 168.377 50.561C168.086 50.4288 167.844 50.2571 167.65 50.0457C167.457 49.8343 167.311 49.5965 167.215 49.3323C167.118 49.0681 167.069 48.7995 167.069 48.5265C167.069 48.2446 167.122 47.9628 167.228 47.681C167.333 47.3991 167.492 47.1481 167.703 46.9279C167.915 46.6989 168.175 46.514 168.483 46.3731C168.791 46.2321 169.143 46.1617 169.54 46.1617C169.936 46.1617 170.31 46.241 170.663 46.3995C171.024 46.5492 171.319 46.765 171.548 47.0468V46.4788C171.548 45.7565 171.438 45.2193 171.217 44.867C171.006 44.5147 170.614 44.3386 170.042 44.3386C169.795 44.3386 169.579 44.3694 169.394 44.431C169.209 44.4927 169.042 44.5808 168.892 44.6953C168.751 44.801 168.619 44.9375 168.496 45.1048C168.373 45.2633 168.249 45.4439 168.126 45.6465L167.439 44.9595C167.562 44.8274 167.69 44.6953 167.822 44.5632C167.963 44.431 168.13 44.3121 168.324 44.2065C168.527 44.1008 168.765 44.0171 169.038 43.9554C169.311 43.885 169.641 43.8498 170.028 43.8498ZM171.548 47.9848C171.504 47.8791 171.438 47.7558 171.35 47.6149C171.27 47.474 171.165 47.3375 171.032 47.2054C170.9 47.0732 170.742 46.9632 170.557 46.8751C170.372 46.7782 170.152 46.7298 169.896 46.7298C169.641 46.7298 169.408 46.7826 169.196 46.8883C168.985 46.9852 168.804 47.1173 168.655 47.2846C168.514 47.4432 168.403 47.6325 168.324 47.8527C168.245 48.0729 168.205 48.3019 168.205 48.5397C168.205 48.8215 168.254 49.0681 168.351 49.2795C168.456 49.4821 168.588 49.6582 168.747 49.8079C168.906 49.9488 169.082 50.0545 169.275 50.125C169.469 50.1954 169.654 50.2307 169.83 50.2307C169.998 50.2307 170.165 50.1999 170.332 50.1382C170.508 50.0765 170.671 49.9929 170.821 49.8872C170.98 49.7727 171.121 49.6406 171.244 49.4909C171.367 49.3411 171.468 49.1782 171.548 49.0021V47.9848ZM174.732 53.9033V43.9951H175.855V45.0652H175.908C176.234 44.2549 176.921 43.8498 177.969 43.8498C178.409 43.8498 178.814 43.9334 179.184 44.1008C179.554 44.2593 179.871 44.4927 180.135 44.801C180.408 45.1004 180.62 45.4615 180.77 45.8843C180.919 46.307 180.994 46.7826 180.994 47.311C180.994 47.8307 180.919 48.3063 180.77 48.7378C180.62 49.1606 180.408 49.5217 180.135 49.8211C179.871 50.1206 179.554 50.354 179.184 50.5213C178.814 50.6799 178.409 50.7591 177.969 50.7591C177.757 50.7591 177.546 50.7371 177.335 50.6931C177.132 50.649 176.938 50.5786 176.753 50.4817C176.568 50.3848 176.401 50.2571 176.251 50.0986C176.11 49.94 175.996 49.7463 175.908 49.5173H175.855V53.9033H174.732ZM175.855 46.6373V47.7866C175.855 48.1477 175.903 48.4692 176 48.751C176.106 49.0329 176.243 49.2751 176.41 49.4777C176.577 49.6714 176.771 49.8211 176.991 49.9268C177.211 50.0237 177.445 50.0721 177.691 50.0721C177.964 50.0721 178.224 50.0237 178.471 49.9268C178.717 49.8211 178.933 49.6582 179.118 49.438C179.312 49.209 179.462 48.9184 179.567 48.5661C179.682 48.2138 179.739 47.7866 179.739 47.2846C179.739 46.7914 179.682 46.3687 179.567 46.0164C179.462 45.6641 179.316 45.3778 179.131 45.1576C178.946 44.9375 178.726 44.7789 178.471 44.6821C178.224 44.5764 177.964 44.5235 177.691 44.5235C177.436 44.5235 177.194 44.5808 176.965 44.6953C176.745 44.801 176.551 44.9507 176.383 45.1444C176.216 45.3294 176.084 45.554 175.987 45.8182C175.899 46.0736 175.855 46.3466 175.855 46.6373ZM184.555 50.6006V44.5235H181.912V43.9951H188.32V44.5235H185.678V50.6006H184.555ZM190.769 47.4432V50.6006H189.646V43.9951H190.769V46.994H194.111V43.9951H195.234V50.6006H194.111V47.4432H190.769ZM203.214 47.5885H198.194C198.194 48.1257 198.273 48.5661 198.432 48.9096C198.59 49.2531 198.788 49.5217 199.026 49.7154C199.264 49.9092 199.519 50.0457 199.792 50.125C200.074 50.1954 200.338 50.2307 200.585 50.2307C200.805 50.2307 201.003 50.2087 201.179 50.1646C201.364 50.1118 201.54 50.0413 201.708 49.9532C201.875 49.8652 202.038 49.7551 202.197 49.623C202.364 49.4909 202.54 49.3455 202.725 49.187L203.148 49.6098C202.796 49.9797 202.382 50.2659 201.906 50.4685C201.43 50.6622 200.911 50.7591 200.347 50.7591C199.766 50.7591 199.259 50.6622 198.828 50.4685C198.405 50.2659 198.053 50.0017 197.771 49.6758C197.498 49.3411 197.291 48.9668 197.15 48.5529C197.018 48.1301 196.952 47.6986 196.952 47.2582C196.952 46.7298 197.031 46.2586 197.19 45.8446C197.348 45.4219 197.568 45.0652 197.85 44.7745C198.132 44.4751 198.462 44.2505 198.841 44.1008C199.22 43.9422 199.634 43.863 200.083 43.863C200.506 43.863 200.906 43.9334 201.285 44.0743C201.664 44.2153 201.994 44.4266 202.276 44.7085C202.567 44.9903 202.796 45.347 202.963 45.7786C203.13 46.2101 203.214 46.721 203.214 47.311V47.5885ZM198.194 47.06H202.065C202.065 46.2057 201.888 45.5364 201.536 45.052C201.193 44.5588 200.708 44.3121 200.083 44.3121C199.757 44.3121 199.475 44.3914 199.237 44.5499C199 44.6997 198.801 44.9022 198.643 45.1576C198.493 45.4131 198.379 45.7081 198.299 46.0428C198.229 46.3687 198.194 46.7077 198.194 47.06ZM204.934 53.9033V43.9951H206.057V45.0652H206.11C206.436 44.2549 207.123 43.8498 208.171 43.8498C208.611 43.8498 209.016 43.9334 209.386 44.1008C209.756 44.2593 210.073 44.4927 210.338 44.801C210.611 45.1004 210.822 45.4615 210.972 45.8843C211.121 46.307 211.196 46.7826 211.196 47.311C211.196 47.8307 211.121 48.3063 210.972 48.7378C210.822 49.1606 210.611 49.5217 210.338 49.8211C210.073 50.1206 209.756 50.354 209.386 50.5213C209.016 50.6799 208.611 50.7591 208.171 50.7591C207.96 50.7591 207.748 50.7371 207.537 50.6931C207.334 50.649 207.14 50.5786 206.956 50.4817C206.771 50.3848 206.603 50.2571 206.453 50.0986C206.313 49.94 206.198 49.7463 206.11 49.5173H206.057V53.9033H204.934ZM206.057 46.6373V47.7866C206.057 48.1477 206.106 48.4692 206.202 48.751C206.308 49.0329 206.445 49.2751 206.612 49.4777C206.779 49.6714 206.973 49.8211 207.193 49.9268C207.413 50.0237 207.647 50.0721 207.893 50.0721C208.167 50.0721 208.426 50.0237 208.673 49.9268C208.92 49.8211 209.135 49.6582 209.32 49.438C209.514 49.209 209.664 48.9184 209.769 48.5661C209.884 48.2138 209.941 47.7866 209.941 47.2846C209.941 46.7914 209.884 46.3687 209.769 46.0164C209.664 45.6641 209.518 45.3778 209.333 45.1576C209.149 44.9375 208.928 44.7789 208.673 44.6821C208.426 44.5764 208.167 44.5235 207.893 44.5235C207.638 44.5235 207.396 44.5808 207.167 44.6953C206.947 44.801 206.753 44.9507 206.586 45.1444C206.418 45.3294 206.286 45.554 206.189 45.8182C206.101 46.0736 206.057 46.3466 206.057 46.6373ZM216.223 50.0721C216.584 50.0721 216.915 50.0149 217.214 49.9004C217.522 49.7771 217.831 49.5877 218.139 49.3323L218.522 49.8343C218.222 50.0633 217.853 50.2747 217.412 50.4685C216.981 50.6622 216.474 50.7591 215.893 50.7591C215.373 50.7591 214.907 50.671 214.493 50.4949C214.079 50.3099 213.722 50.0633 213.422 49.7551C213.132 49.438 212.907 49.0681 212.749 48.6454C212.59 48.2138 212.511 47.7514 212.511 47.2582C212.511 46.7914 212.581 46.351 212.722 45.9371C212.872 45.5232 213.092 45.1621 213.383 44.8538C213.674 44.5455 214.03 44.3033 214.453 44.1272C214.876 43.9422 215.365 43.8498 215.919 43.8498C216.184 43.8498 216.457 43.8762 216.738 43.929C217.029 43.9731 217.298 44.0611 217.544 44.1932C217.8 44.3165 218.024 44.4839 218.218 44.6953C218.412 44.8978 218.553 45.1576 218.641 45.4747H217.729C217.632 45.1665 217.434 44.9066 217.135 44.6953C216.835 44.4839 216.483 44.3782 216.078 44.3782C215.831 44.3782 215.571 44.431 215.298 44.5367C215.025 44.6336 214.774 44.7965 214.545 45.0255C214.325 45.2457 214.14 45.5452 213.991 45.9239C213.841 46.2938 213.766 46.7474 213.766 47.2846C213.766 47.8043 213.832 48.2446 213.964 48.6057C214.105 48.958 214.29 49.2443 214.519 49.4644C214.748 49.6758 215.008 49.8299 215.298 49.9268C215.598 50.0237 215.906 50.0721 216.223 50.0721ZM221.943 50.6006V44.5235H219.301V43.9951H225.708V44.5235H223.066V50.6006H221.943ZM227.034 43.9951H229.795C230.271 43.9951 230.65 44.0523 230.932 44.1668C231.222 44.2813 231.442 44.4222 231.592 44.5896C231.742 44.7481 231.839 44.9154 231.883 45.0916C231.927 45.2677 231.949 45.4175 231.949 45.5408C231.949 45.761 231.905 45.9591 231.817 46.1353C231.737 46.3026 231.627 46.4523 231.486 46.5844C231.354 46.7077 231.2 46.809 231.024 46.8883C230.848 46.9588 230.672 47.0116 230.496 47.0468V47.1393C230.681 47.1481 230.883 47.1789 231.103 47.2318C231.332 47.2846 231.544 47.3771 231.737 47.5092C231.94 47.6325 232.107 47.8043 232.239 48.0244C232.372 48.2446 232.438 48.5221 232.438 48.8567C232.438 49.0769 232.394 49.2927 232.305 49.5041C232.217 49.7066 232.076 49.8916 231.883 50.0589C231.689 50.2175 231.438 50.3496 231.13 50.4553C230.821 50.5521 230.452 50.6006 230.02 50.6006H227.034V43.9951ZM228.157 50.0721H229.531C229.619 50.0721 229.756 50.0677 229.941 50.0589C230.134 50.0413 230.324 49.9929 230.509 49.9136C230.703 49.8343 230.87 49.711 231.011 49.5437C231.152 49.3676 231.222 49.121 231.222 48.8039C231.222 48.478 231.147 48.2226 230.998 48.0376C230.857 47.8527 230.685 47.7162 230.482 47.6281C230.28 47.54 230.068 47.4872 229.848 47.4696C229.637 47.452 229.461 47.4432 229.32 47.4432H228.157V50.0721ZM228.157 46.994H229.307C229.509 46.994 229.703 46.9676 229.888 46.9147C230.073 46.8531 230.236 46.7694 230.377 46.6637C230.518 46.5492 230.628 46.4171 230.707 46.2674C230.795 46.1088 230.839 45.9283 230.839 45.7257C230.839 45.62 230.821 45.5011 230.786 45.369C230.76 45.2281 230.698 45.096 230.601 44.9727C230.504 44.8494 230.363 44.7437 230.178 44.6556C230.002 44.5676 229.765 44.5235 229.465 44.5235H228.157V46.994ZM240.603 47.311C240.603 47.769 240.524 48.2094 240.365 48.6321C240.206 49.0461 239.977 49.4116 239.678 49.7287C239.387 50.0457 239.031 50.2967 238.608 50.4817C238.194 50.6666 237.727 50.7591 237.208 50.7591C236.679 50.7591 236.199 50.6666 235.768 50.4817C235.345 50.2879 234.984 50.0325 234.684 49.7154C234.394 49.3984 234.165 49.0329 233.997 48.6189C233.839 48.1962 233.76 47.7602 233.76 47.311C233.76 46.8531 233.839 46.4171 233.997 46.0032C234.165 45.5804 234.394 45.2105 234.684 44.8934C234.984 44.5764 235.345 44.3254 235.768 44.1404C236.199 43.9466 236.679 43.8498 237.208 43.8498C237.727 43.8498 238.194 43.9466 238.608 44.1404C239.031 44.3254 239.387 44.5764 239.678 44.8934C239.977 45.2105 240.206 45.5804 240.365 46.0032C240.524 46.4171 240.603 46.8531 240.603 47.311ZM239.348 47.311C239.348 46.6945 239.282 46.1969 239.15 45.8182C239.017 45.4307 238.846 45.1312 238.634 44.9199C238.423 44.7085 238.19 44.5676 237.934 44.4971C237.679 44.4178 237.432 44.3782 237.194 44.3782C236.957 44.3782 236.71 44.4178 236.455 44.4971C236.199 44.5676 235.961 44.7085 235.741 44.9199C235.53 45.1312 235.354 45.4307 235.213 45.8182C235.081 46.1969 235.015 46.6945 235.015 47.311C235.015 47.9188 235.081 48.4164 235.213 48.8039C235.354 49.1826 235.53 49.4777 235.741 49.689C235.961 49.9004 236.199 50.0457 236.455 50.125C236.71 50.1954 236.957 50.2307 237.194 50.2307C237.432 50.2307 237.679 50.1954 237.934 50.125C238.19 50.0457 238.423 49.9004 238.634 49.689C238.846 49.4777 239.017 49.1826 239.15 48.8039C239.282 48.4164 239.348 47.9188 239.348 47.311Z" fill="#F3F3FA"/>
<defs>
<filter id="filter0_d_170_564" x="10.5495" y="13.8193" width="24.3856" height="25.5197" filterUnits="userSpaceOnUse" color-interpolation-filters="sRGB">
<feFlood flood-opacity="0" result="BackgroundImageFix"/>
<feColorMatrix in="SourceAlpha" type="matrix" values="0 0 0 0 0 0 0 0 0 0 0 0 0 0 0 0 0 0 127 0" result="hardAlpha"/>
<feOffset dx="0.537033" dy="1.07407"/>
<feGaussianBlur stdDeviation="0.537033"/>
<feComposite in2="hardAlpha" operator="out"/>
<feColorMatrix type="matrix" values="0 0 0 0 0 0 0 0 0 0 0 0 0 0 0 0 0 0 0.25 0"/>
<feBlend mode="normal" in2="BackgroundImageFix" result="effect1_dropShadow_170_564"/>
<feBlend mode="normal" in="SourceGraphic" in2="effect1_dropShadow_170_564" result="shape"/>
</filter>
<filter id="filter1_d_170_564" x="21.7005" y="21.6812" width="24.1451" height="25.2726" filterUnits="userSpaceOnUse" color-interpolation-filters="sRGB">
<feFlood flood-opacity="0" result="BackgroundImageFix"/>
<feColorMatrix in="SourceAlpha" type="matrix" values="0 0 0 0 0 0 0 0 0 0 0 0 0 0 0 0 0 0 127 0" result="hardAlpha"/>
<feOffset dx="0.805549" dy="1.34258"/>
<feGaussianBlur stdDeviation="0.537033"/>
<feComposite in2="hardAlpha" operator="out"/>
<feColorMatrix type="matrix" values="0 0 0 0 0 0 0 0 0 0 0 0 0 0 0 0 0 0 0.25 0"/>
<feBlend mode="normal" in2="BackgroundImageFix" result="effect1_dropShadow_170_564"/>
<feBlend mode="normal" in="SourceGraphic" in2="effect1_dropShadow_170_564" result="shape"/>
</filter>
</defs>
</svg>
