<svg width="200" height="56" viewBox="0 0 200 56" fill="none" xmlns="http://www.w3.org/2000/svg">
<path fill-rule="evenodd" clip-rule="evenodd" d="M0 28V56H28.2695H56.539V28V0H28.2695H0V28ZM10.7492 1.62321C11.5551 2.37671 11.5204 2.56127 10.5979 2.42666C9.66736 2.29074 7.39762 3.24117 7.39762 3.76673C7.39762 4.33777 9.34086 5.96781 10.261 6.16893C10.8169 6.2904 11.4476 6.17998 12.2745 5.81584L13.4785 5.28582L14.7755 7.96698C15.4888 9.44137 16.153 10.9243 16.2515 11.2621C16.4127 11.8147 16.377 11.8476 15.8943 11.5907C14.9522 11.0888 12.6854 11.3099 11.6589 12.0037C11.6047 12.0403 11.8682 12.5924 12.2441 13.231C13.1793 14.819 14.4499 15.416 16.0953 15.0414C16.7603 14.8899 17.3559 14.8174 17.4188 14.8799C17.7839 15.243 18.7854 21.2235 19.0549 24.6479C19.298 27.7339 19.2993 29.5806 19.0608 32.6667C18.6795 37.5973 17.4716 44.9577 17.0436 44.9577C16.9836 44.9577 16.2452 44.7761 15.4027 44.5539C13.4401 44.0368 8.96358 43.3913 7.29696 43.385L6.00739 43.3803L6.16169 42.4343C6.24651 41.914 6.4605 40.0934 6.63698 38.3882L6.95825 35.2876L9.48957 35.1775C12.1926 35.0599 13.558 34.5819 14.7138 33.3487C15.6088 32.394 16.6669 29.8635 16.8303 28.2868L16.9781 26.8634L15.5149 26.6815C13.7717 26.4646 12.1437 26.692 10.7001 27.3535C9.33526 27.979 8.94294 28.3097 8.05733 29.5817L7.32814 30.6291L7.49194 29.5775C7.5823 28.999 7.65733 27.9048 7.65892 27.1456L7.66182 25.7652H9.06791C12.8214 25.7652 14.8254 23.8952 15.4779 19.784L15.6554 18.6667H13.5495C11.0808 18.6667 9.49749 19.3266 8.52048 20.7626L7.92602 21.6365V20.4994C7.92602 19.625 8.14426 19.0471 8.87108 17.9968C9.98337 16.3898 10.3912 14.8915 10.0444 13.6877C9.72731 12.5881 8.66183 10.7849 7.9506 10.1441C7.39868 9.64698 7.38414 9.64858 6.70911 10.2761C5.71915 11.1963 4.80898 12.8518 4.60898 14.096C4.41189 15.3232 5.06129 17.0947 6.20343 18.4456C6.87609 19.2411 7.0613 20.5859 6.64333 21.6408C6.48429 22.0416 6.38389 21.9702 6.01031 21.1904C5.45971 20.0417 3.82141 18.9312 2.39683 18.741L1.321 18.5975V9.82444V1.05165H5.72945C9.89194 1.05165 10.1717 1.08345 10.7492 1.62321ZM44.502 1.73994C44.5976 2.11853 44.622 2.48189 44.5561 2.54735C44.4903 2.61255 39.5207 2.54445 33.5128 2.39565C26.303 2.21713 22.1979 2.21345 21.4386 2.3846C18.5128 3.04451 17.0201 4.51392 16.5257 7.22032L16.3353 8.2625L15.2351 6.16C14.6299 5.00372 13.6891 3.44018 13.1439 2.68537C12.5992 1.93081 12.1532 1.25434 12.1532 1.18257C12.1532 1.11053 19.3926 1.05165 28.2409 1.05165H44.3284L44.502 1.73994ZM55.2179 5.82057V10.5898L53.8972 10.4341C49.9328 9.96665 46.4354 6.43132 45.851 2.30047L45.6742 1.05165H50.4462H55.2179V5.82057ZM40.0631 3.84613L44.8555 3.99835L45.2512 5.00057L45.6467 6.00304L42.0441 7.30892C40.0626 8.02719 37.6869 8.75388 36.7652 8.92396C34.567 9.32891 32.6928 10.2249 32.9049 10.7694C33.2642 11.6911 33.3331 13.6717 33.051 14.9796C32.8856 15.7484 32.7865 16.4136 32.8309 16.4579C32.8755 16.5024 33.503 16.2476 34.2254 15.8919C34.9477 15.5362 36.27 15.1168 37.1635 14.9602C39.0473 14.63 39.0925 14.5532 39.0981 11.6688L39.1017 9.79761L42.6666 8.46152L46.2314 7.12541L47.3976 8.35372L48.5641 9.58207L45.3178 14.3215C43.5323 16.9283 40.9297 20.7173 39.534 22.7418L36.9963 26.4225L35.2169 26.554L33.4375 26.6855L30.1944 31.2864L26.9517 35.8873L26.9501 42.6573C26.9493 46.3809 26.8909 49.4273 26.8204 49.4273C26.7498 49.4273 26.0792 49.0521 25.3303 48.5933L23.9681 47.7593L24.1487 44.3209C24.5878 35.9641 26.331 28.6586 29.1921 23.1835C30.9081 19.8997 30.6711 20.1114 31.9221 20.7463C33.54 21.5679 35.5149 21.4932 37.0024 20.5544C38.9429 19.3292 41.5514 16.7927 41.2148 16.4577C41.0462 16.2899 39.9067 16.169 38.4941 16.169C36.2964 16.169 35.9284 16.2435 34.656 16.9449C33.8822 17.3713 32.6999 18.2292 32.0291 18.8509C31.3582 19.4725 30.7205 19.9812 30.6119 19.9812C30.0724 19.9812 30.1612 19.3024 30.8954 17.8114C31.9625 15.644 32.3348 13.5941 31.9638 11.9267C31.6497 10.5157 30.7138 8.41315 30.3997 8.41315C29.9968 8.41315 27.6734 13.4316 27.5429 14.5836C27.4386 15.507 27.5601 16.0702 28.1025 17.1733C28.4837 17.949 29.0227 18.7879 29.3004 19.0376C29.7945 19.4825 29.7855 19.5269 28.8806 21.117C28.3719 22.0106 27.5038 23.79 26.9511 25.0714L25.9461 27.4011L25.5329 25.9863C25.0896 24.4688 23.9572 22.5906 22.8763 21.5803L22.209 20.9563L21.9273 21.6935C21.4367 22.9776 21.2119 25.4758 21.4504 26.9899C21.7117 28.6476 22.1279 29.5596 23.4465 31.3629L24.3675 32.6225L23.8084 35.9638C23.5012 37.8016 23.1352 41.0062 22.9955 43.0856C22.8558 45.1647 22.6967 46.9104 22.642 46.9646C22.5876 47.0187 21.6224 46.6808 20.4972 46.2136C18.614 45.4313 18.4616 45.3114 18.5757 44.7006C20.0465 36.823 20.1389 36.0487 20.2742 30.4446C20.4576 22.8482 19.8388 18.0028 17.9905 12.5611L17.243 10.3605L18.8452 10.0577C21.7953 9.49972 23.4882 7.67988 23.7276 4.80995L23.8454 3.39417L29.5582 3.54378C32.7001 3.62633 37.4275 3.76226 40.0631 3.84613ZM92.2062 4.95482L90.7529 5.40807L90.6835 14.4035L90.6141 23.399H92.5993H94.5835V13.9343C94.5835 3.19305 94.8335 4.13532 92.2062 4.95482ZM123.91 4.98873L122.457 5.45383L122.387 14.4265L122.318 23.399H124.303H126.288V13.9343C126.288 3.19515 126.541 4.14636 123.91 4.98873ZM75.2972 14.0657V23.399H81.7702H88.2431V22.7481V22.0972L83.8177 22.0251L79.3924 21.9531V18.5352V15.1173L83.4214 15.0448L87.4504 14.9722V14.3218V13.6714H83.3554H79.2602V9.85915V6.04695H83.7517H88.2431V5.38967V4.7324H81.7702H75.2972V14.0657ZM107.266 14.0657V23.399H109.247H111.229V19.1925V14.9859H115.192H119.154V14.3286V13.6714H115.192H111.229V9.85915V6.04695H115.588H119.948V5.38967V4.7324H113.606H107.266V14.0657ZM190.951 8.74073L189.168 9.27737V16.3383V23.399H191.15H193.131V18.3785C193.131 12.6113 193.254 12.2293 195.369 11.4255C196.633 10.9452 197.744 11.0286 199.039 11.7008C199.456 11.917 199.842 12.0939 199.898 12.0939C199.954 12.0939 200 11.4456 200 10.6528C200 9.30075 199.955 9.20059 199.273 9.02756C197.811 8.6566 196.178 8.83486 194.65 9.5316L193.131 10.2243V9.1874C193.131 8.61691 193.041 8.16234 192.933 8.17732C192.823 8.19205 191.932 8.44574 190.951 8.74073ZM134.379 9.09168C129.741 10.5614 127.593 15.0212 129.578 19.0584C130.393 20.7153 131.398 21.6384 133.421 22.5867C134.712 23.1919 135.198 23.2671 137.781 23.2626C141.099 23.2571 142.339 22.8545 144.204 21.1772C145.749 19.7885 146.476 18.1438 146.476 16.0376C146.476 13.1185 144.803 10.681 141.908 9.38407C140.288 8.65818 136.243 8.50122 134.379 9.09168ZM146.707 9.00472C146.78 9.18554 148.298 12.5037 150.08 16.3786L153.321 23.4235L154.663 23.3457L156.005 23.2676L157.305 20.1784C158.021 18.4795 158.676 17.09 158.761 17.0908C158.847 17.0916 159.556 18.5171 160.337 20.2583L161.757 23.4243L163.107 23.3459L164.456 23.2676L167.545 16.0376L170.633 8.80751L169.701 8.72416C169.188 8.67841 168.624 8.6963 168.447 8.76414C168.269 8.83171 167.192 11.0318 166.051 13.653C164.91 16.2739 163.898 18.3265 163.8 18.2139C163.703 18.1014 162.683 15.9101 161.534 13.344L159.445 8.67869L157.272 8.67737C154.766 8.67579 154.85 8.31876 156.507 11.9206L157.455 13.9821L156.488 16.199C155.956 17.4181 155.436 18.3243 155.333 18.2127C155.23 18.1009 154.217 15.9095 153.082 13.3427L151.02 8.67606H148.797C147.125 8.67606 146.607 8.7573 146.707 9.00472ZM175.748 9.15933C173.858 9.82869 172.541 10.9471 171.64 12.6481C170.954 13.9414 170.898 14.2524 170.996 16.1932C171.082 17.9048 171.242 18.5565 171.813 19.5259C172.723 21.0713 174.126 22.2157 175.958 22.9055C177.859 23.622 181.265 23.479 184.146 22.5617C186.364 21.856 186.416 21.7759 186.134 19.5324L185.955 18.1014L184.863 19.1759C183.502 20.5173 181.916 21.2976 180.564 21.29C178.605 21.2792 176.368 19.7885 175.71 18.0581C175.122 16.5073 174.914 16.5634 181.242 16.5634H187.054V15.5535C187.054 12.9415 185.721 10.6628 183.537 9.54285C181.684 8.59218 177.878 8.40474 175.748 9.15933ZM139.789 10.5924C140.283 10.9232 140.985 11.7219 141.347 12.367C141.916 13.3762 142.008 13.8701 142.008 15.9061C142.008 17.9042 141.905 18.4765 141.347 19.5866C140.499 21.275 139.3 22.0845 137.648 22.0845C136.018 22.0845 134.842 21.2892 133.965 19.594C133.395 18.4911 133.289 17.9342 133.289 16.0376C133.289 14.1409 133.395 13.5841 133.965 12.4812C134.337 11.7621 135.039 10.9073 135.524 10.5822C136.727 9.77529 138.577 9.77972 139.789 10.5924ZM181.373 10.8574C182.215 11.6959 182.822 13.1736 182.826 14.3944C182.827 14.9796 182.788 14.9859 179.128 14.9859H175.429V14.3202C175.429 12.8753 176.748 10.7315 177.939 10.2414C178.23 10.1218 178.926 10.0163 179.485 10.0072C180.295 9.99402 180.679 10.1665 181.373 10.8574ZM51.8151 11.2694L52.507 11.5289L51.3482 17.1355C50.711 20.2189 50.0011 23.5997 49.771 24.6479L49.3524 26.554H43.9474C39.6972 26.554 38.5831 26.4838 38.7334 26.2253C38.9831 25.7968 46.4312 14.9207 48.261 12.3126C49.6666 10.3095 49.6803 10.299 50.3992 10.6534C50.7971 10.8495 51.4343 11.1269 51.8151 11.2694ZM55.2179 22.9171C55.2179 29.0143 55.173 33.9538 55.1183 33.8936C55.0636 33.8334 54.0071 32.3498 52.7704 30.5968L50.5221 27.4098L52.1247 19.6203L53.7273 11.831H54.4726H55.2179V22.9171ZM2.64201 25.3709C3.25971 25.5878 4.39048 25.7652 5.15482 25.7652H6.54426L6.42985 27.5399C6.36697 28.5158 6.24729 29.7286 6.16407 30.2348L6.01268 31.1549L5.5416 30.0715C4.94398 28.6973 3.46949 27.2215 2.25866 26.7859C1.48877 26.5088 1.321 26.3168 1.321 25.7124C1.321 24.8487 1.22537 24.8734 2.64201 25.3709ZM52.2972 32.0543L55.2179 36.227V45.4563V54.6854H49.2734H43.3289V45.2338V35.7822L46.1691 31.721C47.7313 29.4873 49.0919 27.7097 49.1929 27.7707C49.2938 27.8318 50.6909 29.7594 52.2972 32.0543ZM75.2972 40.3568V49.6902H77.2721H79.2468L79.3197 45.5493L79.3924 41.4085L83.4214 41.3359L87.4504 41.2633V40.6197V39.9762L83.4214 39.9035L79.3924 39.831L79.3192 36.0908L79.2457 32.3509L83.6785 32.2786C88.0489 32.2076 88.112 32.1984 88.1955 31.615L88.2798 31.0235H81.7886H75.2972V40.3568ZM120.277 35.1191L118.362 35.9878V42.8389V49.6902H120.343H122.325V44.5837V39.4768L123.017 38.6587C123.953 37.5513 124.974 37.0704 126.388 37.0704C127.351 37.0704 127.672 37.199 128.118 37.7632C128.633 38.415 128.665 38.7886 128.665 44.0731V49.6902H130.78H132.893V44.3496V39.0092L133.619 38.3348C134.678 37.3523 135.357 37.0704 136.666 37.0704C138.748 37.0704 138.816 37.2734 138.969 43.8672L139.102 49.5587L141.149 49.6354L143.197 49.7122L143.196 44.5087C143.194 38.8133 143.02 37.7493 141.874 36.4513C140.952 35.4057 139.611 34.9664 137.354 34.9698C135.578 34.9724 133.398 35.7488 132.654 36.6445C132.309 37.0594 132.235 37.0447 131.597 36.4374C130.537 35.4267 129.139 34.9671 127.126 34.9671C125.654 34.9671 125.022 35.1091 123.828 35.7088L122.35 36.4507L122.272 35.3508L122.193 34.2507L120.277 35.1191ZM108.719 34.5802C108.573 34.6338 107.771 34.8693 106.936 35.1039L105.416 35.5303V42.6102V49.6902H107.53H109.643L109.652 44.4977C109.661 38.8503 109.662 38.8467 111.233 37.8933C112.378 37.1993 113.659 37.1901 115.155 37.8649C115.788 38.151 116.353 38.385 116.409 38.385C116.466 38.385 116.513 37.7387 116.513 36.9492V35.5132L115.392 35.213C114.019 34.8449 112.361 35.0468 110.974 35.7509C110.399 36.043 109.864 36.2817 109.786 36.2817C109.708 36.2817 109.643 35.8676 109.643 35.3615C109.643 34.4883 109.438 34.3151 108.719 34.5802ZM3.96275 35.1346L5.76751 35.3013L5.65363 36.1203C5.59102 36.5706 5.37675 38.3356 5.17728 40.0427C4.97781 41.7497 4.77147 43.1829 4.71915 43.2278C4.66658 43.2725 3.88058 43.3732 2.97226 43.4513L1.321 43.5932V39.1206C1.321 35.1478 1.36776 34.6658 1.73949 34.8078C1.96961 34.8956 2.97015 35.0426 3.96275 35.1346ZM151.391 35.1612C150.173 35.7738 149.754 36.6327 149.888 38.238C150.033 39.9511 150.897 40.7512 152.603 40.7512C153.51 40.7512 153.941 40.5995 154.438 40.1057C154.794 39.7508 155.086 39.3367 155.086 39.1856C155.086 38.7667 153.874 38.8582 153.5 39.3052C153.051 39.8439 152.09 39.801 151.56 39.2187C151.006 38.6098 150.993 36.9739 151.538 36.4318C152.064 35.9089 153.072 35.8992 153.5 36.4131C153.86 36.8449 155.086 36.9579 155.086 36.5593C155.086 36.4226 154.818 36.0175 154.491 35.6586C153.681 34.7694 152.535 34.5857 151.391 35.1612ZM157.596 35.0654C156.316 35.6257 155.694 37.2547 156.136 38.8882C156.497 40.2204 157.254 40.7512 158.794 40.7512C159.971 40.7512 161.162 40.0844 161.162 39.4263C161.162 39.0914 159.918 39.1001 159.709 39.4366C159.399 39.9369 158.04 39.7248 157.604 39.108L157.186 38.5165L159.24 38.385L161.295 38.2536L161.262 37.2413C161.204 35.4398 159.309 34.3154 157.596 35.0654ZM92.3378 35.58L90.2246 36.1813L90.1472 38.2157L90.0698 40.2498L91.6005 39.0081C94.0276 37.0386 95.3724 36.2817 96.4442 36.2817C97.7498 36.2817 98.2052 36.8699 98.4293 38.8451L98.6152 40.4882L96.7973 40.4928C92.8777 40.5028 90.1107 41.5664 89.1386 43.4368C88.5191 44.6286 88.7503 46.8549 89.586 47.7459C91.1291 49.3912 94.515 50.1213 97.0116 49.3468C98.0602 49.0215 98.271 49.0184 98.3902 49.3266C98.4925 49.5915 99.0697 49.6902 100.52 49.6902H102.51V43.9892C102.51 37.5721 102.296 36.6314 100.6 35.6262C99.2404 34.8199 95.0914 34.7968 92.3378 35.58ZM163.071 35.3765C162.276 35.9304 162.239 37.7027 163.012 38.1831C163.695 38.6074 163.679 38.7643 162.849 39.8486L162.157 40.7512H162.959C163.591 40.7512 163.883 40.5558 164.333 39.831C164.665 39.2968 165.117 38.9108 165.411 38.9108C165.814 38.9108 165.918 39.0991 165.918 39.831C165.918 40.6374 166 40.7512 166.579 40.7512H167.239V37.8591V34.9671H165.448C164.256 34.9671 163.462 35.1039 163.071 35.3765ZM159.938 36.5977C160.342 37.2413 160.074 37.373 158.543 37.2823L157.186 37.2019L157.615 36.5956C158.122 35.8774 159.485 35.8784 159.938 36.5977ZM165.918 36.8075C165.918 37.535 165.846 37.5962 164.985 37.5962C164.4 37.5962 163.995 37.4492 163.9 37.2019C163.614 36.4594 164.018 36.0188 164.985 36.0188C165.846 36.0188 165.918 36.0801 165.918 36.8075ZM46.2352 40.6197V44.9577H49.6698H53.1044V40.6197V36.2817H49.6698H46.2352V40.6197ZM52.0476 38.2536C52.0476 38.9032 52.0212 38.9108 49.8018 38.9108C47.5826 38.9108 47.5561 38.9032 47.5561 38.2536C47.5561 37.6039 47.5826 37.5962 49.8018 37.5962C52.0212 37.5962 52.0476 37.6039 52.0476 38.2536ZM52.0476 41.9343V43.6432H49.8018H47.5561V41.9343V40.2253H49.8018H52.0476V41.9343ZM98.4071 44.1033C98.3039 45.3687 98.0851 46.5709 97.9206 46.7752C97.7569 46.9793 97.1068 47.3739 96.4762 47.6521C95.5032 48.0814 95.2123 48.109 94.5488 47.835C93.5625 47.4286 92.9986 46.3604 92.9986 44.8978C92.9986 42.8229 94.3016 41.8315 97.0516 41.8131L98.5947 41.8028L98.4071 44.1033ZM158.058 44.0415C157.586 44.2424 157.199 44.2939 157.199 44.1564C157.199 44.0186 156.902 43.9061 156.539 43.9061H155.878V47.9812V52.0564H156.539C157.164 52.0564 157.199 51.978 157.199 50.6011C157.199 49.2437 157.234 49.1641 157.711 49.418C159.307 50.2683 161.226 49.3155 161.567 47.502C162.036 45.0159 160.148 43.1534 158.058 44.0415ZM164.201 43.9234C163.454 44.1453 162.747 44.7997 162.747 45.2708C162.747 45.5771 164.007 45.5336 164.201 45.2206C164.427 44.8553 165.746 44.8909 166.13 45.2732C166.807 45.9471 166.476 46.2723 165.113 46.2723C164.05 46.2723 163.649 46.403 163.132 46.9177C162.776 47.2727 162.483 47.6944 162.483 47.855C162.483 48.2602 163.031 49.2558 163.382 49.489C163.848 49.7993 165.784 49.7188 166.13 49.3747C166.376 49.1294 166.446 49.1294 166.446 49.3747C166.446 49.5481 166.761 49.6902 167.146 49.6902H167.846L167.688 47.463C167.502 44.8468 167.274 44.3244 166.148 43.9337C165.203 43.6056 165.271 43.6061 164.201 43.9234ZM170.748 43.8251C169.677 44.036 168.825 45.3703 168.825 46.8386C168.825 47.941 168.949 48.2772 169.597 48.9216C170.639 49.9586 172.483 50.0175 173.459 49.0447C173.816 48.6898 174.109 48.2756 174.109 48.1245C174.109 47.7057 172.896 47.7972 172.523 48.2441C172.095 48.7582 171.086 48.7484 170.561 48.2254C170.088 47.7559 170.01 46.226 170.418 45.4663C170.75 44.8505 172.046 44.7803 172.523 45.3521C172.883 45.7838 174.109 45.8969 174.109 45.4983C174.109 45.3616 173.841 44.9565 173.514 44.5976C172.906 43.9305 171.793 43.6198 170.748 43.8251ZM176.493 44.093C174.785 44.9682 174.425 47.6637 175.831 49.0623C176.331 49.5597 176.741 49.6902 177.807 49.6902C179.408 49.6902 180.311 48.9792 180.59 47.502C181.088 44.8607 178.766 42.9286 176.493 44.093ZM150.066 46.7982V49.6902H150.726C151.333 49.6902 151.387 49.5937 151.387 48.507C151.387 47.6481 151.492 47.324 151.77 47.324C151.982 47.324 152.522 47.8564 152.972 48.507C153.58 49.3872 153.963 49.6902 154.464 49.6902H155.139L154.618 48.8131C154.332 48.3306 153.908 47.6468 153.675 47.2937C153.273 46.6835 153.291 46.5928 154.036 45.4759C154.985 44.052 154.999 43.9061 154.186 43.9061C153.713 43.9061 153.374 44.2071 152.855 45.0892C152.471 45.7399 151.984 46.2723 151.772 46.2723C151.492 46.2723 151.387 45.9505 151.387 45.0892C151.387 44.0026 151.333 43.9061 150.726 43.9061H150.066V46.7982ZM181.242 44.4319C181.242 44.8576 181.418 44.9577 182.167 44.9577H183.092V47.324C183.092 49.6725 183.096 49.6902 183.751 49.6902C184.407 49.6902 184.412 49.6725 184.412 47.324V44.9577H185.336C186.085 44.9577 186.261 44.8576 186.261 44.4319C186.261 43.9429 186.085 43.9061 183.751 43.9061C181.418 43.9061 181.242 43.9429 181.242 44.4319ZM187.298 45.1549C187.574 45.8416 188.159 47.2319 188.6 48.2441C189.288 49.8303 189.351 50.1571 189.055 50.6103C188.866 50.8995 188.457 51.174 188.147 51.2203C187.748 51.2794 187.582 51.4921 187.582 51.9433C187.582 52.6639 187.7 52.6973 188.847 52.2995C189.954 51.9154 190.292 51.32 191.663 47.3392L192.845 43.9061H192.112C191.424 43.9061 191.343 44.0325 190.771 46.0052C190.435 47.1599 190.068 48.0477 189.956 47.9783C189.843 47.909 189.425 46.9643 189.027 45.8793C188.359 44.0533 188.248 43.9061 187.551 43.9061H186.798L187.298 45.1549ZM13.4743 45.3545C17.7591 46.2839 22.3691 48.1445 25.5955 50.2462L26.9485 51.1277V52.9066V54.6854H26.0732C25.4383 54.6854 24.9849 54.4622 24.4219 53.8723C22.8335 52.2075 19.3844 49.8784 16.2795 48.3735C12.8267 46.6998 9.68106 45.7023 5.93447 45.0928L3.56671 44.7077L7.52972 44.816C9.78681 44.8781 12.3458 45.1097 13.4743 45.3545ZM159.958 45.5422C160.852 46.8115 160.159 48.6385 158.785 48.6385C158.296 48.6385 157.874 48.4284 157.611 48.054C156.717 46.7847 157.41 44.9577 158.785 44.9577C159.273 44.9577 159.695 45.1678 159.958 45.5422ZM178.981 45.5422C179.875 46.8115 179.182 48.6385 177.807 48.6385C177.318 48.6385 176.897 48.4284 176.634 48.054C175.74 46.7847 176.433 44.9577 177.807 44.9577C178.296 44.9577 178.717 45.1678 178.981 45.5422ZM6.24016 46.4124C12.3765 47.4662 18.4782 50.2092 22.1928 53.5839L23.3818 54.6639L20.8618 54.6746L18.3422 54.6854L17.0309 53.3509C14.214 50.4836 9.39183 47.8734 4.66447 46.6575C1.85549 45.935 2.6975 45.8041 6.24016 46.4124ZM166.446 47.3413C166.446 48.1237 165.863 48.6385 164.975 48.6385C163.873 48.6385 163.452 47.9681 164.209 47.4172C164.789 46.9953 166.446 46.9391 166.446 47.3413ZM5.94452 48.3049C9.45044 49.3972 13.0269 51.3865 15.7199 53.7416L16.7767 54.6657L13.9916 54.6754L11.2064 54.6854L10.0286 53.4808C8.28376 51.6964 5.78309 49.7743 3.48771 48.4531L1.45311 47.2821L2.64201 47.4643C3.2959 47.5645 4.78203 47.9429 5.94452 48.3049ZM5.41612 51.1496C6.28798 51.7663 7.53131 52.8144 8.17912 53.4781L9.35696 54.6854L7.51863 54.6849L5.68031 54.6844L4.89089 53.4361C4.45655 52.7496 3.47583 51.4519 2.71124 50.5525C1.94664 49.6531 1.321 48.8433 1.321 48.7528C1.321 48.5223 3.53051 49.8156 5.41612 51.1496ZM3.15006 53.1093L4.26103 54.6854H2.79103H1.321V52.813C1.321 50.6306 1.4132 50.6453 3.15006 53.1093Z" fill="#F3F3FA"/>
</svg>
